<svg width="211" height="107" viewBox="0 0 211 107" fill="none" xmlns="http://www.w3.org/2000/svg">
<path d="M9.35669 3.04395H24.4292V43.9422H18.683V8.94726H15.0728V78.8627H41.4611V84.766H9.35669V3.04395Z" fill="white"/>
<path d="M0 16.3418H12.0927L12.1078 22.2451H5.7462L5.73116 88.4934H43.1883V93.9793H0V16.3418Z" fill="white"/>
<path d="M44.5713 93.9785L38.8401 93.9785L38.81 55.935L12.4774 55.935L12.4774 50.0317L44.5412 50.0317L44.5713 93.9785Z" fill="white"/>
<path d="M9.32585 103.102L53.9416 103.102L53.9416 40.4017L12.8601 40.4018L12.8601 46.3051L48.1954 46.3051L48.1954 97.1988L36.9588 97.1988L15.0721 97.1988L15.0721 90.5472L9.32585 90.5472L9.32585 103.102Z" fill="white"/>
<path d="M92.2325 48.3452C89.9969 48.3452 88.0079 47.8521 86.2655 46.8658C84.5231 45.8795 83.1423 44.4001 82.1231 42.4275C81.1368 40.4221 80.6437 37.8906 80.6437 34.8331C80.6437 31.7428 81.1533 29.2113 82.1724 27.2388C83.2245 25.2662 84.6217 23.8032 86.3641 22.8498C88.1394 21.8635 90.0956 21.3704 92.2325 21.3704C94.8297 21.3704 97.1146 21.9293 99.0872 23.0471C101.093 24.1649 102.671 25.7265 103.821 27.7319C105.005 29.7374 105.597 32.1044 105.597 34.8331C105.597 37.5619 105.005 39.9289 103.821 41.9344C102.671 43.9398 101.093 45.5179 99.0872 46.6685C97.1146 47.7863 94.8297 48.3452 92.2325 48.3452ZM77.6355 48V11.409H83.7998V27.7812L83.3067 34.7838L83.5039 41.7864V48H77.6355ZM91.5421 43.0686C93.0215 43.0686 94.3366 42.7398 95.4872 42.0823C96.6708 41.4248 97.6077 40.4714 98.2981 39.2221C98.9885 37.9728 99.3337 36.5098 99.3337 34.8331C99.3337 33.1236 98.9885 31.6606 98.2981 30.4442C97.6077 29.1949 96.6708 28.2415 95.4872 27.584C94.3366 26.9265 93.0215 26.5977 91.5421 26.5977C90.0627 26.5977 88.7312 26.9265 87.5477 27.584C86.3641 28.2415 85.4272 29.1949 84.7368 30.4442C84.0464 31.6606 83.7012 33.1236 83.7012 34.8331C83.7012 36.5098 84.0464 37.9728 84.7368 39.2221C85.4272 40.4714 86.3641 41.4248 87.5477 42.0823C88.7312 42.7398 90.0627 43.0686 91.5421 43.0686ZM112.89 57.9121C111.608 57.9121 110.326 57.6984 109.044 57.271C107.761 56.8437 106.693 56.2519 105.838 55.4957L108.304 50.9588C108.929 51.5177 109.635 51.9616 110.424 52.2903C111.213 52.6191 112.019 52.7835 112.841 52.7835C113.959 52.7835 114.863 52.504 115.553 51.9451C116.243 51.3862 116.885 50.4493 117.476 49.1342L119.005 45.6822L119.498 44.9425L129.46 21.6663H135.377L123.049 50.1205C122.227 52.0931 121.306 53.6547 120.287 54.8053C119.301 55.956 118.183 56.7615 116.934 57.2217C115.717 57.682 114.37 57.9121 112.89 57.9121ZM118.315 48.937L106.43 21.6663H112.841L122.506 44.4001L118.315 48.937ZM149.864 48.3452C146.971 48.3452 144.736 47.6055 143.158 46.1261C141.58 44.6138 140.791 42.3946 140.791 39.4687V15.8472H146.955V39.3207C146.955 40.57 147.267 41.5399 147.892 42.2303C148.549 42.9207 149.454 43.2659 150.604 43.2659C151.985 43.2659 153.136 42.9042 154.056 42.1809L155.782 46.5699C155.059 47.1617 154.171 47.6055 153.119 47.9014C152.067 48.1973 150.982 48.3452 149.864 48.3452ZM136.451 26.795V21.8635H154.007V26.795H136.451ZM172.364 48.3452C169.438 48.3452 166.874 47.7699 164.671 46.6192C162.501 45.4357 160.808 43.8247 159.592 41.7864C158.408 39.7481 157.816 37.4304 157.816 34.8331C157.816 32.2031 158.392 29.8853 159.542 27.8799C160.726 25.8415 162.337 24.2471 164.375 23.0964C166.446 21.9457 168.797 21.3704 171.427 21.3704C173.991 21.3704 176.276 21.9293 178.282 23.0471C180.287 24.1649 181.865 25.7429 183.016 27.7812C184.167 29.8196 184.742 32.2195 184.742 34.9811C184.742 35.2441 184.725 35.54 184.693 35.8687C184.693 36.1975 184.676 36.5098 184.643 36.8057H162.698V32.7126H181.388L178.972 33.9948C179.005 32.4825 178.693 31.151 178.035 30.0004C177.378 28.8497 176.474 27.9456 175.323 27.2881C174.205 26.6306 172.906 26.3018 171.427 26.3018C169.915 26.3018 168.583 26.6306 167.433 27.2881C166.315 27.9456 165.427 28.8661 164.77 30.0497C164.145 31.2003 163.833 32.5647 163.833 34.1427V35.129C163.833 36.7071 164.194 38.1043 164.918 39.3207C165.641 40.5371 166.66 41.4741 167.975 42.1316C169.29 42.7891 170.802 43.1179 172.512 43.1179C173.991 43.1179 175.323 42.8878 176.506 42.4275C177.69 41.9672 178.742 41.244 179.662 40.2577L182.967 44.0549C181.783 45.4357 180.287 46.5041 178.479 47.2603C176.704 47.9836 174.665 48.3452 172.364 48.3452ZM186.282 51.7479V48H210.939V51.7479H186.282Z" fill="white"/>
<path d="M92.2325 95.521C89.9969 95.521 88.0079 95.0278 86.2655 94.0416C84.5231 93.0553 83.1423 91.5759 82.1231 89.6033C81.1368 87.5979 80.6437 85.0664 80.6437 82.0089C80.6437 78.9186 81.1533 76.3871 82.1724 74.4146C83.2245 72.442 84.6217 70.979 86.3641 70.0256C88.1394 69.0393 90.0956 68.5462 92.2325 68.5462C94.8297 68.5462 97.1146 69.1051 99.0872 70.2229C101.093 71.3407 102.671 72.9023 103.821 74.9077C105.005 76.9131 105.597 79.2802 105.597 82.0089C105.597 84.7376 105.005 87.1047 103.821 89.1102C102.671 91.1156 101.093 92.6936 99.0872 93.8443C97.1146 94.9621 94.8297 95.521 92.2325 95.521ZM77.6355 95.1758V58.5847H83.7998V74.957L83.3067 81.9596L83.5039 88.9622V95.1758H77.6355ZM91.5421 90.2444C93.0215 90.2444 94.3366 89.9156 95.4872 89.2581C96.6708 88.6006 97.6077 87.6472 98.2981 86.3979C98.9885 85.1486 99.3337 83.6856 99.3337 82.0089C99.3337 80.2994 98.9885 78.8364 98.2981 77.62C97.6077 76.3707 96.6708 75.4173 95.4872 74.7598C94.3366 74.1022 93.0215 73.7735 91.5421 73.7735C90.0627 73.7735 88.7312 74.1022 87.5477 74.7598C86.3641 75.4173 85.4272 76.3707 84.7368 77.62C84.0464 78.8364 83.7012 80.2994 83.7012 82.0089C83.7012 83.6856 84.0464 85.1486 84.7368 86.3979C85.4272 87.6472 86.3641 88.6006 87.5477 89.2581C88.7312 89.9156 90.0627 90.2444 91.5421 90.2444ZM127.33 95.1758V89.8499L126.985 88.7156V79.3953C126.985 77.5871 126.442 76.1899 125.357 75.2036C124.272 74.1844 122.629 73.6749 120.426 73.6749C118.946 73.6749 117.483 73.905 116.037 74.3652C114.623 74.8255 113.423 75.4666 112.437 76.2885L110.021 71.8009C111.434 70.716 113.111 69.9105 115.051 69.3845C117.023 68.8256 119.062 68.5462 121.166 68.5462C124.979 68.5462 127.922 69.4667 129.993 71.3078C132.097 73.116 133.149 75.9269 133.149 79.7405V95.1758H127.33ZM119.045 95.521C117.073 95.521 115.347 95.1922 113.867 94.5347C112.388 93.8443 111.237 92.9073 110.415 91.7238C109.626 90.5074 109.232 89.143 109.232 87.6307C109.232 86.1513 109.577 84.8198 110.267 83.6363C110.99 82.4528 112.158 81.5158 113.768 80.8254C115.379 80.135 117.516 79.7898 120.179 79.7898H127.823V83.8829H120.623C118.519 83.8829 117.105 84.2281 116.382 84.9185C115.659 85.576 115.297 86.3979 115.297 87.3842C115.297 88.5019 115.741 89.3896 116.629 90.0471C117.516 90.7046 118.749 91.0334 120.327 91.0334C121.84 91.0334 123.187 90.6882 124.371 89.9978C125.587 89.3074 126.459 88.2883 126.985 86.9403L128.02 90.6389C127.428 92.1841 126.36 93.384 124.815 94.2388C123.303 95.0936 121.379 95.521 119.045 95.521ZM156.002 68.5462C158.106 68.5462 159.98 68.9571 161.624 69.779C163.301 70.6009 164.616 71.8667 165.569 73.5762C166.522 75.2529 166.999 77.4227 166.999 80.0857V95.1758H160.835V80.8747C160.835 78.5405 160.276 76.7981 159.158 75.6474C158.073 74.4968 156.545 73.9214 154.572 73.9214C153.125 73.9214 151.843 74.2173 150.726 74.8091C149.608 75.4008 148.737 76.2885 148.112 77.472C147.52 78.6227 147.224 80.0857 147.224 81.861V95.1758H141.06V68.8421H146.928V75.9433L145.893 73.7735C146.813 72.0968 148.145 70.8146 149.887 69.927C151.662 69.0065 153.701 68.5462 156.002 68.5462ZM179.849 89.3074L179.997 81.5651L193.756 68.8421H201.153L189.465 80.5788L186.21 83.2911L179.849 89.3074ZM174.819 95.1758V58.5847H180.983V95.1758H174.819ZM194.692 95.1758L185.076 83.2911L188.972 78.3597L202.188 95.1758H194.692Z" fill="white"/>
</svg>
