<svg width="99" height="50" viewBox="0 0 99 50" fill="none" xmlns="http://www.w3.org/2000/svg">
<path d="M4.38989 1.42804H11.4618V20.6173H8.76574V4.19784H7.07186V37.0018H19.4531V39.7716H4.38989V1.42804Z" fill="#A43751"/>
<path d="M0 7.66707H5.67384L5.6809 10.4369H2.69609L2.68903 41.5202H20.2637V44.0941H0V7.66707Z" fill="#A43751"/>
<path d="M20.9126 44.0941L18.2236 44.0941L18.2095 26.2443L5.85431 26.2443L5.85431 23.4745L20.8985 23.4745L20.9126 44.0941Z" fill="#A43751"/>
<path d="M4.3756 48.3747L25.3091 48.3747L25.3091 18.9561L6.03385 18.9561L6.03385 21.7259L22.613 21.7259L22.613 45.6049L17.3408 45.6049L7.07169 45.6049L7.07169 42.4841L4.3756 42.4841L4.3756 48.3747Z" fill="#A43751"/>
<path d="M43.2749 22.162C42.226 22.162 41.2928 21.9306 40.4752 21.4678C39.6577 21.0051 39.0098 20.3109 38.5317 19.3854C38.0689 18.4445 37.8375 17.2567 37.8375 15.8222C37.8375 14.3722 38.0766 13.1845 38.5548 12.259C39.0484 11.3334 39.704 10.647 40.5215 10.1997C41.3545 9.73693 42.2723 9.50555 43.2749 9.50555C44.4935 9.50555 45.5656 9.76778 46.4911 10.2922C47.432 10.8167 48.1724 11.5494 48.7123 12.4903C49.2676 13.4313 49.5453 14.5419 49.5453 15.8222C49.5453 17.1025 49.2676 18.2131 48.7123 19.154C48.1724 20.095 47.432 20.8354 46.4911 21.3753C45.5656 21.8997 44.4935 22.162 43.2749 22.162ZM36.4261 22V4.8317H39.3183V12.5135L39.087 15.7991L39.1795 19.0846V22H36.4261ZM42.951 19.6862C43.6451 19.6862 44.2621 19.532 44.802 19.2235C45.3573 18.915 45.797 18.4676 46.1209 17.8815C46.4448 17.2953 46.6068 16.6089 46.6068 15.8222C46.6068 15.0201 46.4448 14.3337 46.1209 13.7629C45.797 13.1768 45.3573 12.7294 44.802 12.4209C44.2621 12.1124 43.6451 11.9582 42.951 11.9582C42.2569 11.9582 41.6321 12.1124 41.0768 12.4209C40.5215 12.7294 40.0819 13.1768 39.758 13.7629C39.434 14.3337 39.2721 15.0201 39.2721 15.8222C39.2721 16.6089 39.434 17.2953 39.758 17.8815C40.0819 18.4676 40.5215 18.915 41.0768 19.2235C41.6321 19.532 42.2569 19.6862 42.951 19.6862ZM52.9673 26.6507C52.3658 26.6507 51.7642 26.5504 51.1626 26.3499C50.561 26.1494 50.0597 25.8717 49.6586 25.517L50.8155 23.3883C51.1086 23.6505 51.4402 23.8587 51.8105 24.013C52.1807 24.1672 52.5586 24.2444 52.9442 24.2444C53.4687 24.2444 53.8929 24.1133 54.2168 23.851C54.5407 23.5888 54.8415 23.1492 55.1192 22.5322L55.8364 20.9125L56.0678 20.5655L60.7417 9.64438H63.5182L57.7337 22.9949C57.3481 23.9204 56.9162 24.6531 56.438 25.193C55.9753 25.7329 55.4508 26.1108 54.8647 26.3268C54.2939 26.5427 53.6615 26.6507 52.9673 26.6507ZM55.5125 22.4396L49.9363 9.64438H52.9442L57.4792 20.3109L55.5125 22.4396ZM70.3155 22.162C68.9581 22.162 67.9092 21.8149 67.1688 21.1208C66.4283 20.4112 66.0581 19.37 66.0581 17.9971V6.91411H68.9504V17.9277C68.9504 18.5139 69.0969 18.9689 69.39 19.2929C69.6985 19.6168 70.1227 19.7788 70.6626 19.7788C71.3104 19.7788 71.8503 19.6091 72.2822 19.2697L73.0921 21.329C72.7527 21.6067 72.3362 21.8149 71.8426 21.9537C71.349 22.0926 70.84 22.162 70.3155 22.162ZM64.022 12.0507V9.73693H72.2591V12.0507H64.022ZM80.8722 22.162C79.4993 22.162 78.2961 21.892 77.2627 21.3521C76.2446 20.7968 75.4502 20.041 74.8795 19.0846C74.3241 18.1283 74.0465 17.0408 74.0465 15.8222C74.0465 14.5882 74.3164 13.5007 74.8563 12.5597C75.4116 11.6034 76.1675 10.8553 77.1238 10.3154C78.0956 9.77549 79.1985 9.50555 80.4325 9.50555C81.6357 9.50555 82.7078 9.76778 83.6487 10.2922C84.5896 10.8167 85.3301 11.5571 85.8699 12.5135C86.4098 13.4698 86.6798 14.5959 86.6798 15.8916C86.6798 16.015 86.6721 16.1538 86.6566 16.3081C86.6566 16.4623 86.6489 16.6089 86.6335 16.7477H76.3371V14.8273H85.1064L83.9726 15.4288C83.9881 14.7193 83.8415 14.0946 83.533 13.5547C83.2245 13.0148 82.8003 12.5906 82.2604 12.2821C81.736 11.9736 81.1267 11.8193 80.4325 11.8193C79.723 11.8193 79.0983 11.9736 78.5584 12.2821C78.0339 12.5906 77.6174 13.0225 77.3089 13.5778C77.0159 14.1177 76.8693 14.7578 76.8693 15.4983V15.961C76.8693 16.7014 77.039 17.357 77.3783 17.9277C77.7177 18.4985 78.1959 18.9381 78.8129 19.2466C79.4299 19.5551 80.1395 19.7094 80.9416 19.7094C81.6357 19.7094 82.2604 19.6014 82.8157 19.3854C83.3711 19.1695 83.8647 18.8301 84.2966 18.3674L85.8468 20.149C85.2915 20.7968 84.5896 21.2982 83.7413 21.6529C82.9083 21.9923 81.9519 22.162 80.8722 22.162ZM87.4025 23.7585V22H98.9714V23.7585H87.4025Z" fill="#A43751"/>
<path d="M43.2749 44.2965C42.226 44.2965 41.2928 44.0652 40.4752 43.6024C39.6577 43.1396 39.0098 42.4455 38.5317 41.52C38.0689 40.5791 37.8375 39.3913 37.8375 37.9568C37.8375 36.5068 38.0766 35.319 38.5548 34.3935C39.0484 33.468 39.704 32.7816 40.5215 32.3343C41.3545 31.8715 42.2723 31.6401 43.2749 31.6401C44.4935 31.6401 45.5656 31.9023 46.4911 32.4268C47.432 32.9513 48.1724 33.684 48.7123 34.6249C49.2676 35.5658 49.5453 36.6765 49.5453 37.9568C49.5453 39.2371 49.2676 40.3477 48.7123 41.2886C48.1724 42.2296 47.432 42.97 46.4911 43.5098C45.5656 44.0343 44.4935 44.2965 43.2749 44.2965ZM36.4261 44.1346V26.9663H39.3183V34.648L39.087 37.9336L39.1795 41.2192V44.1346H36.4261ZM42.951 41.8208C43.6451 41.8208 44.2621 41.6665 44.802 41.358C45.3573 41.0495 45.797 40.6022 46.1209 40.016C46.4448 39.4299 46.6068 38.7434 46.6068 37.9568C46.6068 37.1546 46.4448 36.4682 46.1209 35.8975C45.797 35.3113 45.3573 34.864 44.802 34.5555C44.2621 34.247 43.6451 34.0927 42.951 34.0927C42.2569 34.0927 41.6321 34.247 41.0768 34.5555C40.5215 34.864 40.0819 35.3113 39.758 35.8975C39.434 36.4682 39.2721 37.1546 39.2721 37.9568C39.2721 38.7434 39.434 39.4299 39.758 40.016C40.0819 40.6022 40.5215 41.0495 41.0768 41.358C41.6321 41.6665 42.2569 41.8208 42.951 41.8208ZM59.7424 44.1346V41.6357L59.5804 41.1035V36.7305C59.5804 35.8821 59.3259 35.2265 58.8169 34.7637C58.3079 34.2855 57.5366 34.0465 56.5031 34.0465C55.809 34.0465 55.1225 34.1544 54.4438 34.3704C53.7805 34.5863 53.2175 34.8871 52.7548 35.2728L51.621 33.1672C52.2843 32.6582 53.071 32.2803 53.9811 32.0335C54.9066 31.7712 55.863 31.6401 56.8502 31.6401C58.6395 31.6401 60.0201 32.072 60.9919 32.9358C61.9791 33.7842 62.4727 35.1031 62.4727 36.8924V44.1346H59.7424ZM55.8552 44.2965C54.9297 44.2965 54.1199 44.1423 53.4258 43.8338C52.7316 43.5098 52.1917 43.0702 51.8061 42.5149C51.4359 41.9442 51.2508 41.304 51.2508 40.5945C51.2508 39.9003 51.4128 39.2756 51.7367 38.7203C52.0761 38.165 52.6237 37.7254 53.3795 37.4014C54.1353 37.0775 55.138 36.9156 56.3874 36.9156H59.9738V38.836H56.5957C55.6084 38.836 54.9452 38.998 54.6058 39.3219C54.2664 39.6304 54.0968 40.016 54.0968 40.4788C54.0968 41.0032 54.305 41.4197 54.7215 41.7282C55.138 42.0367 55.7164 42.191 56.4568 42.191C57.1664 42.191 57.7988 42.029 58.3541 41.7051C58.9249 41.3812 59.3336 40.903 59.5804 40.2705L60.0663 42.0059C59.7887 42.7309 59.2874 43.2939 58.5624 43.695C57.8528 44.096 56.9504 44.2965 55.8552 44.2965ZM73.1953 31.6401C74.1825 31.6401 75.0617 31.8329 75.833 32.2186C76.6197 32.6042 77.2367 33.1981 77.684 34.0002C78.1314 34.7869 78.355 35.8049 78.355 37.0544V44.1346H75.4628V37.4246C75.4628 36.3294 75.2006 35.5119 74.6761 34.972C74.1671 34.4321 73.4498 34.1621 72.5243 34.1621C71.8456 34.1621 71.244 34.301 70.7195 34.5786C70.1951 34.8563 69.7863 35.2728 69.4932 35.8281C69.2156 36.368 69.0767 37.0544 69.0767 37.8873V44.1346H66.1845V31.7789H68.9379V35.1108L68.452 34.0927C68.8839 33.306 69.5086 32.7045 70.3262 32.288C71.1591 31.8561 72.1155 31.6401 73.1953 31.6401ZM84.3841 41.3812L84.4535 37.7485L90.9089 31.7789H94.3796L88.8959 37.2858L87.3688 38.5583L84.3841 41.3812ZM82.024 44.1346V26.9663H84.9162V44.1346H82.024ZM91.3486 44.1346L86.8367 38.5583L88.6646 36.2446L94.8655 44.1346H91.3486Z" fill="#A43751"/>
</svg>
