<svg width="429" height="807" viewBox="0 0 429 807" fill="none" xmlns="http://www.w3.org/2000/svg">
<path d="M74.363 0.505127H194.157V329.792H148.487V48.0349H119.794V610.95H329.525V658.48H74.363V0.505127Z" fill="#BF405E"/>
<path d="M0 107.567H96.1114L96.2309 155.097H45.67L45.5505 688.486H343.255V732.655H0V107.567Z" fill="#BF405E"/>
<path d="M354.241 732.655L308.69 732.655L308.451 426.352L99.1624 426.352L99.1624 378.823L354.002 378.823L354.241 732.655Z" fill="#BF405E"/>
<path d="M74.1242 806.11L428.725 806.11L428.725 301.287L102.214 301.287L102.214 348.816L383.054 348.816L383.055 758.581L293.747 758.581L119.794 758.581L119.794 705.027L74.1242 705.027L74.1242 806.11Z" fill="#BF405E"/>
</svg>
