<svg width="150" height="155" viewBox="0 0 150 155" fill="none" xmlns="http://www.w3.org/2000/svg">
<path fill-rule="evenodd" clip-rule="evenodd" d="M55.5174 21.69C44.9574 34.11 15.2974 62.69 10.8574 91.76C9.38742 101.4 10.1974 121.12 23.2374 123.17C29.7974 124.17 35.8674 119.17 40.4574 115.25C48.3274 108.46 62.0074 96.07 73.6874 100.81C78.9374 102.94 79.0774 108.76 78.4374 113.66C77.1974 123.13 73.9274 132.79 76.0974 142.39C77.6374 149.2 82.4274 156.21 90.3074 154.6C101.927 152.23 109.467 135.9 114.467 127.01C117.683 121.291 120.587 115.402 123.167 109.37C132.167 88.37 143.907 52.99 122.307 34.63C114.577 28.06 106.237 30.34 97.8074 34.13C92.8774 36.34 85.8074 40.76 80.2774 37.75C70.8974 32.6 80.1574 18.42 79.8174 11.02C79.3774 2.25999 61.0274 15.21 55.5174 21.69Z" fill="#FFE9E9"/>
<path d="M6.49741 50.37C1.92741 57.18 -1.00257 65.37 2.26743 73.3C3.10743 75.36 4.71744 78.52 7.05744 79.13C11.2074 80.19 12.8074 72.48 13.1974 70C14.6274 60.73 11.6574 47.09 21.6074 41.38C23.8074 40.12 24.6074 43.8 24.8174 45.3C24.9174 46.07 25.0774 48.3 25.1174 48.77C25.2874 51.3 26.1174 61.51 31.1674 57.5C34.9474 54.5 35.6274 48.23 36.9674 43.94C39.4774 35.85 45.6374 25.6 54.7074 23.78" stroke="#279FF2" stroke-linejoin="round"/>
<path d="M122.627 106.89C113.407 112.52 105.717 119.89 102.327 130.37C100.997 134.49 101.177 139.61 104.507 142.79C108.877 146.95 113.177 144.01 116.507 139.94C122.797 132.21 123.917 117.67 134.867 114.24C137.147 113.52 138.027 115.35 137.557 117.63C137.344 118.563 137.07 119.482 136.737 120.38C135.607 123.54 133.737 126.38 132.997 129.71C132.257 133.04 135.847 131.31 137.047 129.9C137.757 128.976 138.402 128.003 138.977 126.99C139.777 125.67 140.547 124.36 141.407 123.09" stroke="#279FF2" stroke-linejoin="round"/>
<path d="M18.1674 105.08C26.5674 110.18 15.9574 118.93 14.6274 125.54C13.7674 129.82 15.6274 135.94 21.1274 135.44" stroke="#A14DF6" stroke-linejoin="round"/>
<path d="M119.327 79.23C118.607 83.44 120.107 94.31 127.157 91.23C131.227 89.44 136.577 79.66 141.237 86.3C141.87 87.263 142.441 88.265 142.947 89.3" stroke="#A14DF6" stroke-linejoin="round"/>
<path fill-rule="evenodd" clip-rule="evenodd" d="M8.85742 18.87C8.85742 19.33 8.80741 19.8 8.78741 20.27V20.87C8.78741 23.52 8.66741 26.21 8.69741 28.87C8.70624 31.1096 8.84649 33.3468 9.11742 35.57L9.66741 35.5C9.44741 33.86 9.32742 32.2 9.26742 30.5C9.15742 27.39 9.26742 24.25 9.26742 21.15C9.26742 20.84 9.26742 20.53 9.26742 20.22C9.26742 19.75 9.26741 19.28 9.19741 18.81L8.85742 18.87Z" fill="#F56C2C"/>
<path fill-rule="evenodd" clip-rule="evenodd" d="M4.10742 26.87L4.70743 27.06L5.60742 27.28C6.75742 27.55 7.93741 27.82 9.09741 28.17C10.2574 28.52 11.3874 28.92 12.5074 29.34L13.9474 29.89L14.1674 29.37C13.6974 29.16 13.2174 28.95 12.7274 28.76C11.6074 28.31 10.4474 27.92 9.2774 27.58C8.11504 27.2145 6.93323 26.914 5.73743 26.68C5.42743 26.62 5.11743 26.57 4.80743 26.54C4.49743 26.51 4.38743 26.54 4.17743 26.54L4.10742 26.87Z" fill="#F56C2C"/>
<path fill-rule="evenodd" clip-rule="evenodd" d="M5.95743 22.77C6.80743 24.77 7.58741 26.77 8.53741 28.69C9.17528 29.9882 9.91773 31.2322 10.7574 32.41L11.2174 32.07C10.4016 30.9143 9.67612 29.6973 9.04742 28.43C8.04742 26.53 7.24741 24.56 6.34741 22.59L5.95743 22.77Z" fill="#F56C2C"/>
<path fill-rule="evenodd" clip-rule="evenodd" d="M5.10742 29.88H5.16742C5.33083 29.814 5.48811 29.7337 5.63742 29.64C6.31742 29.25 6.95742 28.8 7.63742 28.36C8.92742 27.45 10.1974 26.51 11.4774 25.58C12.0174 25.18 12.5574 24.78 13.1174 24.41L12.8974 24.05C12.3374 24.39 11.7974 24.74 11.2574 25.1C9.34742 26.42 7.54742 27.88 5.57742 29.1L5.24741 29.31C5.14809 29.364 5.05431 29.4277 4.96741 29.5L5.10742 29.88Z" fill="#F56C2C"/>
<path fill-rule="evenodd" clip-rule="evenodd" d="M149.167 99.71L148.477 99.89C146.477 100.48 144.407 101.18 142.477 101.97C140.994 102.539 139.551 103.207 138.157 103.97L138.357 104.33C139.738 103.57 141.168 102.902 142.637 102.33C144.637 101.55 146.637 100.95 148.637 100.22L149.297 99.96L149.167 99.71Z" fill="#F56C2C"/>
<path fill-rule="evenodd" clip-rule="evenodd" d="M143.457 97.47C143.457 97.91 143.457 98.36 143.537 98.8C143.617 99.8 143.717 100.88 143.787 101.92C143.857 103.11 143.887 104.29 143.937 105.49C143.937 105.78 143.937 106.08 143.937 106.38H144.377C144.377 106.01 144.377 105.65 144.377 105.3C144.377 103.86 144.297 102.42 144.187 100.99C144.137 100.27 144.087 99.56 143.987 98.84C143.917 98.37 143.827 97.9 143.737 97.42L143.457 97.47Z" fill="#F56C2C"/>
<path fill-rule="evenodd" clip-rule="evenodd" d="M146.777 97.73L146.577 97.93C146.023 98.5863 145.502 99.2705 145.017 99.98C144.097 101.23 143.207 102.5 142.327 103.78C141.947 104.33 141.587 104.88 141.197 105.42L141.617 105.72C142.007 105.18 142.397 104.64 142.777 104.09C143.667 102.82 144.517 101.53 145.407 100.27C145.897 99.58 146.407 98.92 146.927 98.21C146.983 98.1338 147.033 98.0535 147.077 97.97L146.777 97.73Z" fill="#F56C2C"/>
<path fill-rule="evenodd" clip-rule="evenodd" d="M141.247 99.91C141.487 100.07 141.717 100.24 141.957 100.39L142.697 100.8C144.097 101.56 145.497 102.32 146.897 103.05L148.707 103.99L148.897 103.66L147.427 102.79L145.927 101.98C144.737 101.34 143.557 100.66 142.337 100.05C142.037 99.89 141.727 99.76 141.417 99.62L141.247 99.91Z" fill="#F56C2C"/>
<path d="M46.1674 1.04999C44.3274 2.72999 42.2774 4.14 40.3874 5.75C37.2974 8.4 34.4374 11.35 31.2774 13.91" stroke="#ADDD1C" stroke-linejoin="round"/>
<path d="M33.8274 1C37.3546 6.17087 40.5768 11.5433 43.4774 17.09" stroke="#ADDD1C" stroke-linejoin="round"/>
<path d="M83.9774 153.26C87.5274 150.64 90.9774 147.91 94.5174 145.26" stroke="#F56C2C" stroke-linejoin="round"/>
<path fill-rule="evenodd" clip-rule="evenodd" d="M27.3474 45.26L20.4674 47.1L15.1674 56.37L39.4174 147.89L47.8174 149.89L54.7074 148.06L27.3474 45.26Z" fill="#75798E"/>
<path d="M99.1867 26.1604L20.4464 47.1116L47.7924 149.886L126.533 128.934L99.1867 26.1604Z" fill="#B0B5CE"/>
<path fill-rule="evenodd" clip-rule="evenodd" d="M97.5675 35.37C97.4931 35.1307 97.3316 34.928 97.1149 34.802C96.8983 34.6761 96.6422 34.6361 96.3974 34.69L27.6074 53C27.3681 53.0744 27.1654 53.2359 27.0395 53.4525C26.9135 53.6692 26.8736 53.9252 26.9274 54.17L30.9274 69.17C31.0018 69.4114 31.1649 69.6158 31.3838 69.742C31.6027 69.8681 31.8612 69.9067 32.1074 69.85L100.887 51.55C101.129 51.4756 101.333 51.3125 101.459 51.0936C101.586 50.8747 101.624 50.6162 101.567 50.37L97.5675 35.37Z" fill="#7C8EE6"/>
<path fill-rule="evenodd" clip-rule="evenodd" d="M84.4174 78.15L40.6374 89.81L39.4174 92.88L51.6374 138.79L95.3174 127.17L96.8174 124.75L84.4174 78.15Z" fill="black"/>
<path d="M84.3955 78.1756L40.6186 89.8237L53.0279 136.461L96.8047 124.813L84.3955 78.1756Z" fill="#D6DBF1"/>
<path fill-rule="evenodd" clip-rule="evenodd" d="M105.767 72.48L92.5074 76.01L91.4074 78.47L103.767 124.92L116.767 121.46L118.217 119.38L105.767 72.48Z" fill="black"/>
<path fill-rule="evenodd" clip-rule="evenodd" d="M70.7974 82.53C71.2374 84.05 71.6874 85.53 72.1574 87.07C74.0574 93.07 76.1574 99.07 77.9274 105.07C79.5374 110.59 80.9274 116.15 82.5074 121.68C83.1741 124.047 83.8608 126.413 84.5674 128.78L84.9674 128.66C84.4274 126.77 83.9074 124.87 83.3874 122.97C82.1674 118.54 80.9874 114.1 79.7674 109.67C79.3274 108.09 78.8774 106.5 78.4174 104.93C77.7574 102.65 77.0474 100.39 76.3174 98.13C75.1274 94.45 73.8874 90.79 72.6774 87.13C72.1474 85.56 71.6174 83.99 71.1174 82.41L70.7974 82.53Z" fill="black"/>
<path fill-rule="evenodd" clip-rule="evenodd" d="M56.1674 85.95C56.1674 86.18 56.2474 86.42 56.3074 86.66C56.4274 87.22 56.5874 87.76 56.7374 88.31C58.5974 95.37 60.5307 102.413 62.5374 109.44C64.5441 116.467 66.6274 123.467 68.7874 130.44C68.9774 131.06 69.1474 131.69 69.3674 132.3C69.4174 132.46 69.4874 132.61 69.5374 132.75L69.8974 132.65L69.7774 132.17C69.6074 131.55 69.3974 130.93 69.1974 130.31C67.0508 123.35 64.9774 116.35 62.9774 109.31C60.9774 102.31 59.0574 95.23 57.1674 88.18C57.0274 87.64 56.8974 87.08 56.7274 86.54C56.6574 86.31 56.5774 86.08 56.4974 85.85L56.1674 85.95Z" fill="black"/>
<path fill-rule="evenodd" clip-rule="evenodd" d="M44.0474 103.06C48.3174 101.56 52.6174 100.17 56.9474 98.84C65.0174 96.36 73.1674 94.12 81.2774 91.74C83.2774 91.1467 85.3007 90.54 87.3474 89.92L87.2274 89.51L82.0174 91.04C75.0174 93.04 68.0974 95.04 61.1674 97.16C55.3874 98.9 49.6274 100.72 43.9374 102.74L44.0474 103.06Z" fill="black"/>
<path fill-rule="evenodd" clip-rule="evenodd" d="M47.0574 114.37C47.6874 114.25 48.3174 114.13 48.9474 113.99C51.4474 113.42 53.9474 112.74 56.3974 112.06C63.6074 110.06 70.7674 107.86 77.9374 105.8C80.4474 105.08 82.9374 104.27 85.4274 103.51C86.9174 103.06 88.4274 102.65 89.9374 102.25C90.0749 102.225 90.209 102.185 90.3374 102.13C90.3719 102.109 90.4024 102.082 90.4274 102.05L90.3374 101.7H90.2474C90.1419 101.706 90.0377 101.727 89.9374 101.76C88.7874 102.02 87.6674 102.37 86.5374 102.69C83.6074 103.55 80.7174 104.51 77.7974 105.35C71.6474 107.12 65.5074 109 59.3474 110.75C55.6474 111.81 51.9174 112.75 48.2174 113.75L46.9874 114.12L47.0574 114.37Z" fill="black"/>
<path fill-rule="evenodd" clip-rule="evenodd" d="M49.2974 126.08C52.2974 125.32 55.2974 124.67 58.2974 123.94C59.5908 123.62 60.8708 123.287 62.1374 122.94C64.4574 122.26 66.7174 121.44 69.0274 120.72C70.0274 120.41 71.0274 120.13 72.0274 119.89C77.1974 118.64 82.4574 117.56 87.6374 116.24C89.6374 115.74 91.6374 115.24 93.6374 114.6C93.8175 114.551 93.9945 114.49 94.1674 114.42V114.37L94.0474 113.98L93.6874 114.05C93.5074 114.05 93.3374 114.15 93.1574 114.2C90.5374 114.98 87.8774 115.66 85.2074 116.3C80.7474 117.37 76.2074 118.3 71.8274 119.41C70.8274 119.65 69.8274 119.94 68.8274 120.25C66.5274 120.97 64.2674 121.81 61.9474 122.48C60.6874 122.85 59.4174 123.18 58.1374 123.48C55.1374 124.25 52.1374 124.95 49.1374 125.76L49.2974 126.08Z" fill="black"/>
<path d="M106.318 72L93 75.5698L105.615 122.634L118.933 119.064L106.318 72Z" fill="#D6DBF1"/>
<path d="M96.8549 58.4115L74.8795 64.2587L76.4429 70.1343L98.4183 64.2871L96.8549 58.4115Z" fill="#2F344D"/>
<path fill-rule="evenodd" clip-rule="evenodd" d="M28.0774 53.24H28.2474C28.722 53.1717 29.1927 53.0783 29.6574 52.96C34.3674 51.96 39.0374 50.8 43.6574 49.54C51.3874 47.44 59.0474 45.09 66.7574 42.92C70.0374 41.99 73.3774 41.34 76.6874 40.5C77.5174 40.3 78.3474 40.0799 79.1674 39.8399L91.7974 36.3C92.8361 35.9119 93.8941 35.5782 94.9674 35.3C95.6525 35.1108 96.3826 35.171 97.0274 35.4699C97.503 35.8379 97.8525 36.3446 98.0274 36.92C98.3641 37.8156 98.6348 38.7348 98.8374 39.67L99.3774 41.81C99.9774 44.08 100.597 46.34 101.177 48.61C101.297 49.06 101.407 49.5199 101.527 49.9699C101.527 50.0799 101.597 50.19 101.637 50.3L101.947 50.23L101.857 49.8C101.727 49.22 101.577 48.6599 101.427 48.0899C100.707 45.2499 99.9074 42.43 99.1974 39.58C98.9899 38.6243 98.7124 37.6851 98.3674 36.77C98.1388 36.119 97.7078 35.5582 97.1374 35.17C96.6063 34.9139 96.0116 34.82 95.4274 34.9C94.1444 35.1473 92.8861 35.5087 91.6674 35.98L79.0274 39.51C78.2074 39.74 77.3874 39.96 76.5574 40.17C73.2474 41 69.8974 41.6599 66.6174 42.5899C58.9174 44.7699 51.2474 47.12 43.5274 49.23C38.8874 50.5 34.2374 51.67 29.5274 52.68C29.0514 52.749 28.5804 52.8492 28.1174 52.98C28.0652 52.9938 28.0148 53.014 27.9674 53.04L28.0774 53.24Z" fill="black"/>
<path fill-rule="evenodd" clip-rule="evenodd" d="M42.8274 129.37H42.7774L42.6174 129.42C42.4274 129.51 42.6174 129.25 42.5674 129.42C42.5674 129.42 42.6574 129.69 42.6974 129.82C43.1274 131.16 43.4974 132.53 43.8274 133.89C44.6874 137.45 45.3374 141.06 46.4074 144.56C46.6774 145.45 46.8474 146.87 47.1874 148.03C47.322 148.542 47.5454 149.026 47.8474 149.46C47.8857 149.504 47.9335 149.539 47.9873 149.561C48.041 149.584 48.0992 149.594 48.1574 149.59C48.4211 149.579 48.6827 149.539 48.9374 149.47L51.5874 148.95C53.1374 148.66 54.6774 148.3 56.2074 147.95C58.4974 147.36 60.7674 146.7 63.0374 146.09C65.1374 145.54 67.2174 144.95 69.2874 144.35C74.1374 142.95 78.9474 141.47 83.8074 140.08C84.9874 139.74 86.1775 139.44 87.3775 139.15C90.1775 138.48 92.9974 137.89 95.7874 137.15C96.1974 137.04 96.5974 136.92 96.9974 136.79C98.5874 136.28 100.137 135.64 101.747 135.18C103.357 134.72 105.057 134.31 106.747 133.9C107.867 133.63 108.977 133.36 110.087 133.06L110.737 132.89L110.927 132.83H111.007L110.927 132.56H110.817L110.367 132.67L105.367 133.87C104.117 134.17 102.887 134.49 101.667 134.87C100.057 135.34 98.4974 135.98 96.9074 136.5L95.7174 136.85C92.9374 137.59 90.1175 138.17 87.3175 138.85C86.1175 139.14 84.9174 139.45 83.7274 139.78C78.8774 141.18 74.0674 142.67 69.2174 144.07C67.1441 144.67 65.0641 145.25 62.9774 145.81C60.6974 146.41 58.4274 147.07 56.1374 147.66C54.6174 148.05 53.0874 148.4 51.5474 148.66L48.8874 149.2L48.1574 149.29C47.8866 148.898 47.6869 148.461 47.5674 148C47.2174 146.84 47.0474 145.43 46.7774 144.53C45.5474 140.53 44.8574 136.41 43.7774 132.38C43.5274 131.47 43.2574 130.56 42.9674 129.67L42.8774 129.4L42.8274 129.37Z" fill="black"/>
<path fill-rule="evenodd" clip-rule="evenodd" d="M94.9774 87.45H95.0974C95.2486 87.4237 95.3962 87.3801 95.5374 87.32C97.1874 86.83 98.8374 86.39 100.537 85.96C102.747 85.39 104.977 84.87 107.197 84.31C107.701 84.2059 108.198 84.0757 108.687 83.92L108.847 83.84L108.747 83.44H108.577C108.067 83.52 107.577 83.69 107.077 83.81C104.847 84.35 102.627 84.9 100.417 85.48C98.7574 85.92 97.0974 86.38 95.4174 86.88C95.2711 86.9127 95.1274 86.9562 94.9874 87.01L94.8874 87.1L94.9774 87.45Z" fill="black"/>
<path fill-rule="evenodd" clip-rule="evenodd" d="M98.7974 100.37C99.4974 100.13 100.217 99.92 100.927 99.71C101.987 99.38 103.047 99.04 104.127 98.71C106.557 98.05 109.047 97.51 111.447 96.85C111.607 96.8 111.777 96.77 111.937 96.71L112.247 96.58L112.147 96.19H111.847C111.627 96.19 111.407 96.3 111.187 96.36C108.357 97.05 105.447 97.7 102.627 98.53C101.957 98.73 101.277 98.93 100.627 99.17C99.9774 99.41 99.3274 99.7 98.6874 100L98.7974 100.37Z" fill="black"/>
<path fill-rule="evenodd" clip-rule="evenodd" d="M101.817 112.06C101.937 112.01 102.067 111.99 102.187 111.94C102.657 111.74 103.117 111.49 103.607 111.33C104.557 111.02 105.607 110.81 106.497 110.55C108.267 110.05 110.077 109.45 111.897 108.95L113.707 108.5C114.317 108.36 114.927 108.22 115.537 108.12L115.467 107.69C114.529 107.812 113.598 107.982 112.677 108.2C110.537 108.71 108.417 109.44 106.347 110.02C105.247 110.34 104.047 110.56 102.957 111.02C102.607 111.133 102.271 111.287 101.957 111.48C101.829 111.577 101.712 111.688 101.607 111.81L101.817 112.06Z" fill="black"/>
<path fill-rule="evenodd" clip-rule="evenodd" d="M95.9974 36.56L95.3174 37.56C94.4174 38.92 93.4974 40.26 92.5374 41.56C90.2874 44.64 87.8574 47.56 85.5374 50.64C84.9674 51.4 84.4174 52.18 83.8674 52.97L84.2074 53.21C84.7774 52.45 85.3674 51.71 85.9474 50.95C88.2674 47.95 90.6374 44.95 92.8674 41.84C93.8674 40.51 94.7674 39.17 95.6274 37.78C95.8374 37.43 96.0474 37.08 96.2474 36.72L95.9974 36.56Z" fill="white"/>
<path fill-rule="evenodd" clip-rule="evenodd" d="M97.3874 38.37C97.2174 38.56 97.0474 38.75 96.8874 38.95L96.5774 39.37C95.5774 40.72 94.5774 42.11 93.4974 43.46C92.9774 44.13 92.4374 44.8 91.9074 45.46C91.5574 45.9 91.2074 46.35 90.8374 46.79L91.1674 47.07C91.5574 46.65 91.9374 46.23 92.3074 45.78C92.8574 45.13 93.3774 44.45 93.8974 43.78C94.8974 42.42 95.9574 41.03 96.9574 39.65L97.2574 39.24C97.3974 39.02 97.5274 38.8 97.6574 38.58L97.3874 38.37Z" fill="white"/>
<path fill-rule="evenodd" clip-rule="evenodd" d="M96.6974 43.09C96.3974 43.42 96.1074 43.75 95.8174 44.09C94.6974 45.43 93.6274 46.86 92.4874 48.22C91.7274 49.13 90.9274 50 90.1474 50.86C89.9474 51.07 89.7674 51.3 89.5674 51.52L89.8474 51.8C90.0674 51.6 90.2974 51.41 90.5074 51.2C91.3432 50.3547 92.1311 49.4632 92.8674 48.53C93.9974 47.17 95.1074 45.76 96.1674 44.36C96.4374 44.01 96.6874 43.65 96.9574 43.29L96.6974 43.09Z" fill="white"/>
<path fill-rule="evenodd" clip-rule="evenodd" d="M98.5874 44.88C98.5874 44.88 98.5274 44.88 98.4974 44.88C98.406 44.9397 98.3249 45.014 98.2574 45.1C97.6074 45.77 97.0074 46.49 96.3774 47.19C96.2174 47.36 96.0774 47.55 95.9174 47.72L96.1974 48.01C96.3274 47.91 96.4474 47.82 96.5674 47.71C96.6874 47.6 97.0874 47.18 97.3374 46.91C97.8074 46.38 98.3374 45.91 98.7374 45.31C98.7708 45.2691 98.8009 45.2256 98.8274 45.18C98.8318 45.1502 98.8318 45.1198 98.8274 45.09L98.5874 44.88Z" fill="white"/>
<path fill-rule="evenodd" clip-rule="evenodd" d="M92.1674 37.21C91.6974 37.86 91.1674 38.49 90.6874 39.1C89.4874 40.55 88.2174 41.93 87.0074 43.37C84.6274 46.23 82.3674 49.19 80.0074 52.1C79.2074 53.1 78.3874 54.1 77.5874 55.1L76.9974 55.86L77.3074 56.11C77.4474 55.96 77.5974 55.81 77.7374 55.65C78.2974 55.01 78.8274 54.34 79.3674 53.65C82.0474 50.35 84.5974 46.94 87.3074 43.65C88.4974 42.19 89.7474 40.8 90.9274 39.34C91.4374 38.71 91.9274 38.07 92.3974 37.41L92.1674 37.21Z" fill="white"/>
<path fill-rule="evenodd" clip-rule="evenodd" d="M86.8074 39.37L86.7374 39.44C86.5375 39.6624 86.3505 39.8961 86.1774 40.14C84.2974 42.47 82.1774 44.58 80.2474 46.88C79.7074 47.52 79.1874 48.18 78.6974 48.88L79.0374 49.13C81.0374 46.45 83.3974 44.13 85.5574 41.58C86.0374 41.01 86.5574 40.44 86.9774 39.82L87.1074 39.61L86.8074 39.37Z" fill="white"/>
<path fill-rule="evenodd" clip-rule="evenodd" d="M31.8574 67.94C31.9233 67.8415 31.9739 67.7336 32.0074 67.62C32.5074 66.62 33.0874 65.55 33.6874 64.54C34.6874 62.84 35.7774 61.18 36.7674 59.54C37.6474 58.07 38.4774 56.54 39.3874 55.01C39.8174 54.31 40.2674 53.64 40.7274 53.01C40.9274 52.73 41.1174 52.44 41.3274 52.16L41.0474 51.94L40.8674 52.13C40.3648 52.743 39.907 53.3913 39.4974 54.07C38.3874 55.79 37.4274 57.64 36.4174 59.35C35.2574 61.35 33.9674 63.23 32.8374 65.23C32.3974 66 31.9774 66.79 31.6074 67.6C31.6074 67.67 31.4974 67.75 31.4974 67.83C31.4974 67.91 31.4974 67.83 31.4974 67.83L31.8574 67.94Z" fill="white"/>
<path fill-rule="evenodd" clip-rule="evenodd" d="M35.0474 66.66C35.1095 66.5945 35.1663 66.5243 35.2174 66.45C35.4358 66.1558 35.6362 65.8485 35.8174 65.53C37.9874 62.06 39.6674 58.26 41.7374 54.74C42.1474 54.05 42.5674 53.39 42.9974 52.74L43.5574 51.89L43.2174 51.65C43.0074 51.92 42.8074 52.19 42.6074 52.48C42.1574 53.14 41.7474 53.83 41.3374 54.48C39.2674 58 37.5974 61.8 35.4674 65.29C35.2774 65.6 35.0674 65.89 34.8874 66.21C34.8374 66.29 34.8074 66.37 34.7574 66.46L35.0474 66.66Z" fill="white"/>
<path fill-rule="evenodd" clip-rule="evenodd" d="M40.8674 61.29C40.9774 61.13 41.0874 60.98 41.1874 60.82C41.4274 60.45 41.6374 60.06 41.8574 59.68C43.0974 57.51 44.3174 55.29 45.6174 53.14C46.3174 51.99 47.0374 50.86 47.8074 49.76L47.4674 49.52C46.4674 50.98 45.4674 52.52 44.5274 54.06C43.4174 55.92 42.3774 57.82 41.3274 59.69C41.1374 60.02 40.9374 60.34 40.7774 60.69C40.7007 60.8319 40.6338 60.9789 40.5774 61.13L40.8674 61.29Z" fill="white"/>
<path fill-rule="evenodd" clip-rule="evenodd" d="M31.0474 62.85C31.2774 62.51 31.5174 62.17 31.7474 61.85C32.6574 60.46 33.5374 59.05 34.4474 57.66L35.9374 55.44L35.6174 55.22C34.7674 56.45 33.9474 57.69 33.1374 58.93C32.4974 59.93 31.8374 60.93 31.2174 61.93L30.7574 62.7L31.0474 62.85Z" fill="white"/>
<path fill-rule="evenodd" clip-rule="evenodd" d="M30.0174 60.37L30.4274 59.86C30.9374 59.15 31.4274 58.42 31.9374 57.73C32.2174 57.35 32.4974 56.98 32.7974 56.62L32.4474 56.34C31.8574 57.07 31.2874 57.83 30.7474 58.6C30.4674 59.01 30.1574 59.41 29.9074 59.85C29.8448 59.9568 29.7881 60.067 29.7374 60.18L30.0174 60.37Z" fill="white"/>
<path fill-rule="evenodd" clip-rule="evenodd" d="M92.6174 60.65C92.6971 60.6604 92.7778 60.6604 92.8574 60.65C93.0335 60.6232 93.2074 60.5831 93.3774 60.53C94.2474 60.32 95.1274 60.11 95.9874 59.85C96.0874 59.85 96.1774 59.79 96.2774 59.76L96.1674 59.37H95.8274C94.8274 59.55 93.8274 59.85 92.8274 60.08H92.6874C92.6151 60.1138 92.5477 60.1576 92.4874 60.21L92.6174 60.65Z" fill="white"/>
<path fill-rule="evenodd" clip-rule="evenodd" d="M86.9474 62.16H87.1474C87.2396 62.1461 87.3301 62.1226 87.4174 62.09C88.7774 61.76 90.1474 61.45 91.4974 61.09L91.3874 60.69C90.0374 61.05 88.6574 61.33 87.3074 61.69C87.2118 61.7027 87.1178 61.7262 87.0274 61.76C86.9718 61.7933 86.9184 61.83 86.8674 61.87L86.9474 62.16Z" fill="white"/>
<path fill-rule="evenodd" clip-rule="evenodd" d="M81.0374 63.72C81.1107 63.725 81.1842 63.725 81.2574 63.72C81.3579 63.7038 81.4555 63.6735 81.5474 63.63C82.8274 63.22 84.1474 62.87 85.4474 62.52L85.8874 62.39L85.7874 61.97H85.4874C84.5922 62.1518 83.7076 62.3821 82.8374 62.66C82.2392 62.7796 81.6557 62.964 81.0974 63.21C81.0396 63.2513 80.986 63.2981 80.9374 63.35L81.0374 63.72Z" fill="white"/>
<path fill-rule="evenodd" clip-rule="evenodd" d="M76.0474 65.07C76.144 65.075 76.2408 65.075 76.3374 65.07C77.1886 64.9564 78.0308 64.7826 78.8574 64.55C79.1461 64.4946 79.4302 64.4177 79.7074 64.32C79.8274 64.27 79.9274 64.2 80.0474 64.14L79.9174 63.79C79.7974 63.79 79.6774 63.79 79.5574 63.85C78.4974 64.1 77.3974 64.29 76.3474 64.55C76.2791 64.564 76.2121 64.5841 76.1474 64.61C76.0798 64.6427 76.016 64.683 75.9574 64.73L76.0474 65.07Z" fill="white"/>
</svg>
