<svg width="136" height="182" viewBox="0 0 136 182" fill="none" xmlns="http://www.w3.org/2000/svg">
<path fill-rule="evenodd" clip-rule="evenodd" d="M39.4574 173.801C31.7874 170.801 25.0174 165.801 18.6174 160.801C13.8372 157.112 9.77059 152.581 6.61742 147.431C4.81555 144.475 3.36888 141.317 2.30742 138.021C1.50433 135.563 0.931836 133.036 0.597401 130.471C-3.1526 101.111 42.5074 147.551 44.5974 122.341C45.3374 113.281 39.1074 104.861 34.5974 97.4113C22.9574 78.0613 9.9074 53.8813 13.4374 30.7013C15.6074 16.4513 28.3474 3.01134 44.3374 7.80134C64.3874 13.8013 76.6074 36.6313 79.9674 55.0413C82.2174 67.3513 81.5874 82.0413 90.5574 92.1013C101.087 103.931 111.137 89.8913 120.907 85.4913C126.397 83.0313 135.397 81.8614 135.817 89.8914C136.707 107.091 110.207 130.181 99.9374 143.261C96.0674 148.191 90.7074 154.651 89.9374 161.081C89.0274 168.891 104.467 173.591 90.4474 180.021C88.7093 180.784 86.8705 181.293 84.9874 181.531C82.7613 181.8 80.5152 181.863 78.2774 181.721C75.2149 181.553 72.1638 181.219 69.1374 180.721C64.0974 179.831 47.8774 177.111 39.4574 173.801Z" fill="#FFE8D9"/>
<path fill-rule="evenodd" clip-rule="evenodd" d="M50.1674 138.561C50.08 137.194 49.8793 135.836 49.5674 134.501C48.8207 131.37 47.4201 128.433 45.4575 125.881C42.5955 122.292 38.9165 119.439 34.7274 117.561C30.2374 115.411 24.7274 114.121 21.0974 111.171C19.8023 110.139 18.7945 108.791 18.171 107.257C17.5475 105.723 17.3293 104.054 17.5374 102.411C17.5402 102.38 17.5367 102.348 17.5271 102.318C17.5175 102.288 17.502 102.26 17.4816 102.236C17.4611 102.211 17.4361 102.192 17.4079 102.177C17.3798 102.163 17.349 102.154 17.3174 102.151C17.2527 102.146 17.1883 102.166 17.1378 102.207C17.0874 102.248 17.055 102.307 17.0475 102.371C16.8294 104.096 17.0578 105.848 17.7109 107.459C18.3641 109.069 19.4199 110.486 20.7774 111.571C24.3874 114.571 29.9774 115.871 34.4974 118.041C38.6034 119.89 42.2097 122.691 45.0175 126.211C46.8994 128.723 48.2595 131.586 49.0175 134.631C49.3649 135.946 49.6222 137.282 49.7874 138.631C49.7874 138.654 49.7918 138.676 49.8004 138.696C49.8089 138.717 49.8215 138.736 49.8372 138.752C49.853 138.767 49.8718 138.78 49.8924 138.788C49.913 138.797 49.9351 138.801 49.9575 138.801C49.9798 138.801 50.0019 138.797 50.0225 138.788C50.0431 138.78 50.0619 138.767 50.0777 138.752C50.0934 138.736 50.106 138.717 50.1145 138.696C50.123 138.676 50.1274 138.654 50.1274 138.631L50.1674 138.561Z" fill="#A14DF6"/>
<path fill-rule="evenodd" clip-rule="evenodd" d="M99.7075 79.7313C99.7675 79.4813 99.8575 79.2513 99.9275 79.0013V78.8214C100.47 76.0396 101.848 73.4894 103.877 71.5113C108.657 66.5113 116.317 63.1713 120.557 56.7213C121.758 54.9145 122.622 52.9055 123.107 50.7913C123.214 50.2847 123.304 49.7547 123.377 49.2013C123.382 49.1711 123.381 49.1403 123.373 49.1107C123.366 49.081 123.353 49.0531 123.335 49.0284C123.317 49.0038 123.294 48.983 123.268 48.9672C123.242 48.9514 123.213 48.9409 123.182 48.9363C123.152 48.9317 123.121 48.9331 123.092 48.9404C123.062 48.9477 123.034 48.9608 123.01 48.9789C122.985 48.9971 122.964 49.0198 122.948 49.046C122.933 49.0721 122.922 49.1011 122.917 49.1313C122.827 49.6613 122.697 50.1313 122.577 50.6713C122.063 52.704 121.207 54.6347 120.047 56.3813C115.797 62.7813 108.177 66.1013 103.427 71.0813C101.315 73.1482 99.89 75.8159 99.3474 78.7213C99.3418 78.7845 99.3418 78.8481 99.3474 78.9113C99.3326 79.1744 99.3326 79.4382 99.3474 79.7014C99.3569 79.7406 99.3793 79.7756 99.4111 79.8006C99.4428 79.8256 99.482 79.8392 99.5225 79.8392C99.5629 79.8392 99.6021 79.8256 99.6338 79.8006C99.6656 79.7756 99.688 79.7406 99.6974 79.7014L99.7075 79.7313Z" fill="#A14DF6"/>
<path fill-rule="evenodd" clip-rule="evenodd" d="M32.1674 79.9713C31.9874 79.8313 31.8174 79.6914 31.6374 79.5714L31.2574 79.3513C28.3806 77.748 25.6443 75.9048 23.0774 73.8414C21.1874 72.3113 19.4584 70.5924 17.9174 68.7113C17.8777 68.661 17.8195 68.6284 17.7557 68.6209C17.692 68.6134 17.6278 68.6316 17.5774 68.6713C17.5271 68.7111 17.4945 68.7693 17.487 68.833C17.4795 68.8968 17.4977 68.9609 17.5374 69.0113C19.4933 71.3981 21.7332 73.5373 24.2075 75.3814C26.4193 77.0484 28.7449 78.5587 31.1674 79.9013L31.4174 80.0313C31.6074 80.1213 31.8175 80.1913 32.0175 80.2713C32.0376 80.2834 32.06 80.2913 32.0833 80.2943C32.1066 80.2974 32.1302 80.2955 32.1528 80.289C32.1753 80.2824 32.1963 80.2712 32.2143 80.2561C32.2323 80.241 32.247 80.2224 32.2574 80.2014C32.2746 80.1588 32.2748 80.1112 32.2581 80.0685C32.2414 80.0257 32.209 79.991 32.1674 79.9713Z" fill="#279FF2"/>
<path fill-rule="evenodd" clip-rule="evenodd" d="M114.657 55.6013C115.017 54.3394 115.479 53.1088 116.037 51.9213C116.599 50.7396 117.251 49.603 117.987 48.5213C120.127 45.3713 122.827 42.7713 125.587 39.4113C125.605 39.3945 125.619 39.3744 125.628 39.352C125.638 39.3297 125.643 39.3056 125.643 39.2813C125.643 39.257 125.638 39.233 125.628 39.2107C125.619 39.1883 125.605 39.1681 125.587 39.1513C125.57 39.1335 125.549 39.1193 125.526 39.1097C125.502 39.1 125.478 39.095 125.452 39.095C125.427 39.095 125.402 39.1 125.379 39.1097C125.356 39.1193 125.335 39.1335 125.317 39.1513C122.517 42.5013 119.767 45.0713 117.617 48.2313C116.845 49.3273 116.176 50.4922 115.617 51.7113C115.073 52.9305 114.638 54.1955 114.317 55.4913C114.312 55.513 114.31 55.5356 114.313 55.5579C114.316 55.5802 114.323 55.6017 114.334 55.6212C114.345 55.6407 114.36 55.6578 114.378 55.6715C114.395 55.6853 114.416 55.6954 114.437 55.7013C114.459 55.7072 114.482 55.7088 114.504 55.706C114.526 55.7032 114.548 55.696 114.567 55.6848C114.587 55.6737 114.604 55.6588 114.618 55.6411C114.631 55.6233 114.642 55.603 114.647 55.5813L114.657 55.6013Z" fill="#279FF2"/>
<path fill-rule="evenodd" clip-rule="evenodd" d="M96.4074 140.151C98.5074 133.331 103.517 129.711 108.607 126.211C113.957 122.511 119.417 118.931 122.127 112.291C122.2 112.101 122.196 111.891 122.116 111.704C122.035 111.517 121.885 111.369 121.697 111.291C121.508 111.219 121.297 111.223 121.11 111.303C120.923 111.383 120.775 111.533 120.697 111.721C118.107 118.051 112.847 121.411 107.697 124.931C102.327 128.641 97.1074 132.511 94.8874 139.711C94.8549 139.811 94.8427 139.916 94.8513 140.021C94.8599 140.126 94.8893 140.227 94.9377 140.32C94.9861 140.413 95.0526 140.496 95.1332 140.563C95.2139 140.63 95.3071 140.681 95.4074 140.711C95.5097 140.746 95.6183 140.759 95.726 140.749C95.8336 140.74 95.938 140.707 96.0324 140.654C96.1267 140.602 96.2089 140.53 96.2735 140.443C96.3381 140.356 96.3837 140.257 96.4074 140.151Z" fill="#279FF2"/>
<path fill-rule="evenodd" clip-rule="evenodd" d="M77.1674 177.711L42.3874 180.301L56.7174 150.841L41.6074 91.3013L61.6074 90.6913L101.807 102.301L98.2374 120.391L93.9274 121.171C93.9274 121.171 93.7474 148.671 83.9274 150.831C79.6374 162.391 77.1674 177.711 77.1674 177.711Z" fill="#E3A151"/>
<path fill-rule="evenodd" clip-rule="evenodd" d="M41.6074 91.3013L64.9774 77.5513L89.2274 81.8314C89.2274 81.8314 89.2274 94.7613 82.8774 94.2113C75.6874 93.6013 66.7074 92.6913 66.7074 92.6913L41.6074 91.3013Z" fill="#E3A151"/>
<path fill-rule="evenodd" clip-rule="evenodd" d="M88.4974 95.8013C92.5774 95.8013 98.3074 94.4613 99.1874 97.2513C100.067 100.041 94.6874 121.451 94.6874 121.451L83.7674 121.571C83.7674 121.571 84.4174 95.8113 88.4974 95.8013Z" fill="#E3A151"/>
<path fill-rule="evenodd" clip-rule="evenodd" d="M91.8574 113.411C89.9774 118.511 83.2574 116.741 79.7874 116.201C79.7074 111.661 80.1674 99.8113 80.1674 99.8113L57.0574 98.7014L58.7474 85.3713L95.1674 88.9813C95.1674 88.9813 93.7274 108.301 91.8574 113.411Z" fill="#E3A151"/>
<path fill-rule="evenodd" clip-rule="evenodd" d="M120.497 38.3013L64.2774 94.8613L29.1674 58.9913L85.5774 3.62134L120.497 38.3013Z" fill="black"/>
<path fill-rule="evenodd" clip-rule="evenodd" d="M120.497 36.9113L64.2774 93.4713L29.1674 57.6213L85.5974 2.30133L120.497 36.9113Z" fill="#F56C2C"/>
<path d="M54.6311 44.5414L39.4993 59.4894L42.5775 62.6054L57.7092 47.6574L54.6311 44.5414Z" fill="#B55723"/>
<path d="M96.9679 42.1683L82.0067 57.287L85.12 60.3679L100.081 45.2492L96.9679 42.1683Z" fill="#B55723"/>
<path d="M105.876 34.1032L99.7675 40.1712L102.854 43.2786L108.963 37.2106L105.876 34.1032Z" fill="#B55723"/>
<path fill-rule="evenodd" clip-rule="evenodd" d="M58.3274 130.141L53.4474 103.141L57.1674 73.2213C57.1674 73.2213 66.2574 70.6513 67.5974 77.0013C68.5974 81.8513 68.1574 103.891 68.1574 103.891C71.8836 105.433 75.0316 108.105 77.1574 111.531C79.6616 115.481 81.3167 119.908 82.0174 124.531L58.3274 130.141Z" fill="url(#paint0_linear_1_1191)"/>
<path fill-rule="evenodd" clip-rule="evenodd" d="M68.0575 92.8713C68.0575 92.8713 73.9974 93.7113 78.4674 94.1513C79.9626 94.3435 81.4707 94.4171 82.9774 94.3713C84.0112 94.2691 85.0008 93.9001 85.8492 93.3006C86.6976 92.7011 87.3758 91.8916 87.8174 90.9514C88.8193 88.7082 89.334 86.2781 89.3275 83.8214C89.3275 83.5714 89.3275 83.3313 89.3275 83.0913C89.3275 82.8513 89.3275 82.3413 89.3275 82.0013C89.3275 81.9695 89.3148 81.939 89.2923 81.9165C89.2698 81.894 89.2393 81.8813 89.2075 81.8813C89.1921 81.8813 89.1769 81.8844 89.1629 81.8906C89.1489 81.8967 89.1363 81.9057 89.1259 81.917C89.1156 81.9283 89.1077 81.9417 89.1028 81.9562C89.0979 81.9707 89.096 81.9861 89.0974 82.0013C89.0974 82.3313 89.0975 82.7013 89.0475 83.0913C89.0475 83.3213 89.0475 83.5613 89.0475 83.8113C89.0689 86.2203 88.578 88.6064 87.6075 90.8113C87.1808 91.7127 86.5267 92.4874 85.7096 93.059C84.8924 93.6307 83.9405 93.9796 82.9474 94.0714C81.4579 94.1163 79.967 94.0494 78.4875 93.8713C74.0175 93.4613 68.0775 92.6713 68.0775 92.6713C68.0668 92.6681 68.0555 92.6676 68.0445 92.6696C68.0335 92.6717 68.0232 92.6763 68.0144 92.6832C68.0056 92.69 67.9986 92.6989 67.9939 92.709C67.9892 92.7191 67.987 92.7302 67.9875 92.7413C67.9775 92.7536 67.9714 92.7685 67.9699 92.7842C67.9685 92.8 67.9717 92.8158 67.9792 92.8297C67.9866 92.8435 67.9981 92.8549 68.012 92.8623C68.0259 92.8697 68.0418 92.8729 68.0575 92.8713Z" fill="black"/>
<path fill-rule="evenodd" clip-rule="evenodd" d="M80.3574 98.9213C80.2308 100.508 80.1674 102.098 80.1674 103.691C80.0674 106.071 79.9974 108.451 79.9374 110.851C79.9374 111.751 79.6374 113.101 79.6574 114.251C79.6552 114.762 79.7644 115.267 79.9774 115.731C80.2164 116.133 80.5987 116.43 81.0475 116.561C81.6689 116.753 82.3093 116.877 82.9575 116.931C83.8637 117.034 84.7754 117.081 85.6874 117.071C87.0474 117.071 88.4274 116.961 89.7574 116.901C90.4334 116.915 91.1076 116.828 91.7574 116.641C92.2084 116.466 92.5884 116.146 92.8375 115.731C93.0749 115.337 93.2408 114.904 93.3274 114.451C93.4523 113.792 93.5192 113.123 93.5274 112.451C93.5274 111.838 93.5274 111.228 93.5274 110.621C93.5274 109.201 93.4574 107.781 93.5274 106.361C93.5274 104.701 93.6675 103.041 93.8375 101.361C94.1875 97.8913 94.7575 94.4513 95.1775 90.9913C95.1775 90.7613 95.2374 90.5213 95.2574 90.2913C95.2774 90.0613 95.2574 89.9814 95.2574 89.8314C95.2603 89.7931 95.2485 89.7552 95.2243 89.7255C95.2001 89.6957 95.1654 89.6763 95.1274 89.6713C95.0892 89.6684 95.0513 89.6803 95.0216 89.7045C94.9918 89.7286 94.9724 89.7633 94.9674 89.8013C94.9674 89.9513 94.9175 90.1014 94.8975 90.2614C94.8775 90.4214 94.8475 90.7214 94.8274 90.9514C94.4374 94.4214 93.8274 97.8614 93.5074 101.331C93.3474 102.981 93.2275 104.641 93.2075 106.331C93.2075 107.761 93.2074 109.181 93.2574 110.601C93.2574 111.211 93.2574 111.811 93.2574 112.421C93.2509 113.092 93.1874 113.761 93.0674 114.421C92.9847 114.845 92.8291 115.251 92.6074 115.621C92.3887 115.986 92.0544 116.268 91.6574 116.421C91.0078 116.608 90.333 116.692 89.6574 116.671C88.3274 116.731 86.9575 116.821 85.5875 116.831C84.6887 116.845 83.7899 116.799 82.8975 116.691C82.2692 116.648 81.6482 116.53 81.0475 116.341C80.6693 116.225 80.3506 115.967 80.1574 115.621C79.9718 115.196 79.883 114.735 79.8975 114.271C79.8975 113.131 80.1174 111.791 80.1274 110.881C80.1274 108.481 80.1975 106.101 80.2675 103.721C80.3175 102.141 80.3975 100.551 80.4875 98.9613C80.4879 98.9379 80.4802 98.9151 80.4655 98.8968C80.4509 98.8786 80.4304 98.866 80.4074 98.8613C80.3951 98.8669 80.3843 98.8752 80.3756 98.8856C80.367 98.896 80.3607 98.9082 80.3574 98.9213Z" fill="black"/>
<path fill-rule="evenodd" clip-rule="evenodd" d="M84.5474 117.381C84.5376 117.498 84.5376 117.615 84.5474 117.731C84.5474 118.571 84.6174 119.411 84.6474 120.241V121.321C84.6273 121.681 84.6273 122.042 84.6474 122.401C84.6573 122.53 84.7061 122.652 84.7874 122.751C85.0735 122.988 85.4197 123.14 85.7874 123.191C86.3017 123.262 86.8232 123.262 87.3374 123.191C88.0674 123.091 88.7874 122.971 89.5174 122.841C90.5974 122.651 91.6774 122.431 92.7574 122.231C93.3076 122.166 93.8481 122.035 94.3674 121.841C94.7323 121.685 95.0397 121.42 95.2474 121.081C95.4826 120.694 95.6548 120.272 95.7574 119.831C95.8919 119.171 95.9821 118.503 96.0274 117.831C96.1174 116.831 96.2074 115.831 96.3174 114.831C96.3774 114.181 96.4574 113.531 96.5474 112.881C97.0174 109.431 97.9574 106.121 98.5974 102.731C98.7374 102.001 98.8574 101.261 98.9574 100.531C99.0443 99.9412 99.101 99.3472 99.1274 98.7513C99.1274 98.6013 99.1274 98.4513 99.1274 98.3013C99.1274 98.2748 99.1169 98.2493 99.0981 98.2306C99.0794 98.2118 99.0539 98.2014 99.0274 98.2014C99.0025 98.2012 98.9785 98.2103 98.96 98.227C98.9415 98.2436 98.9299 98.2666 98.9274 98.2913L98.8674 98.7313C98.7874 99.3213 98.7274 99.9013 98.6374 100.481C98.5374 101.221 98.4174 101.941 98.2774 102.671C97.6274 106.061 96.6774 109.381 96.1974 112.831C96.1074 113.481 96.0274 114.141 95.9574 114.831C95.8574 115.831 95.7574 116.831 95.6674 117.831C95.6252 118.471 95.5349 119.106 95.3974 119.731C95.3082 120.139 95.1492 120.528 94.9274 120.881C94.7573 121.16 94.5061 121.38 94.2074 121.511C93.7156 121.685 93.2057 121.802 92.6874 121.861C91.6074 122.061 90.5274 122.281 89.4374 122.471C88.7174 122.601 87.9974 122.721 87.2774 122.811C86.803 122.877 86.3218 122.877 85.8474 122.811C85.5498 122.767 85.2698 122.643 85.0374 122.451C84.9776 122.381 84.9424 122.293 84.9374 122.201C84.8874 121.891 84.9374 121.461 84.9374 121.281C84.9374 120.891 84.8774 120.491 84.8574 120.091C84.8074 119.261 84.7774 118.421 84.7474 117.591C84.7579 117.508 84.7579 117.424 84.7474 117.341C84.7475 117.33 84.7452 117.319 84.7405 117.308C84.7359 117.298 84.7291 117.288 84.7206 117.281C84.7121 117.273 84.702 117.268 84.6911 117.264C84.6802 117.261 84.6687 117.26 84.6574 117.261C84.6411 117.256 84.6237 117.256 84.6073 117.26C84.5908 117.265 84.5759 117.274 84.5644 117.286C84.5529 117.299 84.5452 117.315 84.5421 117.331C84.5391 117.348 84.541 117.366 84.5474 117.381Z" fill="black"/>
<path fill-rule="evenodd" clip-rule="evenodd" d="M95.7174 120.831H96.2974C96.5005 120.846 96.7044 120.846 96.9074 120.831C97.1851 120.8 97.4556 120.722 97.7074 120.601C98.0718 120.385 98.3877 120.095 98.6355 119.751C98.8832 119.407 99.0575 119.016 99.1474 118.601C99.401 117.432 99.5946 116.25 99.7274 115.061C99.9874 113.781 100.227 112.501 100.447 111.211C100.977 108.211 101.447 105.211 101.997 102.211C102.003 102.173 101.994 102.134 101.972 102.102C101.949 102.07 101.916 102.049 101.877 102.041C101.842 102.035 101.805 102.044 101.775 102.064C101.745 102.085 101.725 102.116 101.717 102.151C101.157 105.151 100.717 108.151 100.137 111.151C99.9074 112.431 99.6674 113.711 99.4074 114.981C99.2074 115.981 99.1774 117.351 98.8374 118.501C98.7544 118.87 98.5984 119.218 98.3786 119.526C98.1587 119.833 97.8795 120.094 97.5575 120.291C97.397 120.371 97.2249 120.425 97.0474 120.451C96.8723 120.485 96.6953 120.508 96.5174 120.521C96.2274 120.521 95.9474 120.591 95.6974 120.641C95.6753 120.644 95.6549 120.654 95.6402 120.671C95.6254 120.688 95.6173 120.709 95.6174 120.731C95.6174 120.758 95.628 120.783 95.6467 120.802C95.6655 120.821 95.6909 120.831 95.7174 120.831Z" fill="black"/>
<path fill-rule="evenodd" clip-rule="evenodd" d="M76.5074 153.091C77.178 153.112 77.8487 153.058 78.5074 152.931C79.0075 152.841 79.5017 152.721 79.9874 152.571C80.4774 152.421 80.9874 152.251 81.4174 152.081C82.3825 151.735 83.3245 151.328 84.2374 150.861C84.8521 150.544 85.4291 150.158 85.9574 149.711C86.8505 148.953 87.6346 148.074 88.2874 147.101C89.2285 145.633 90.016 144.071 90.6374 142.441C91.2512 140.965 91.7624 139.448 92.1674 137.901C92.5661 136.363 92.8799 134.804 93.1074 133.231C93.3274 131.661 93.4474 130.071 93.5374 128.491C93.6274 126.911 93.6474 125.631 93.6574 124.211C93.6624 124.115 93.6624 124.018 93.6574 123.921C93.6574 123.861 93.6574 123.801 93.6574 123.731C93.6574 123.697 93.6437 123.664 93.6194 123.639C93.595 123.615 93.5619 123.601 93.5274 123.601C93.4929 123.601 93.4599 123.615 93.4355 123.639C93.4111 123.664 93.3974 123.697 93.3974 123.731C93.3925 123.811 93.3925 123.891 93.3974 123.971C93.3974 124.151 93.3974 124.341 93.3974 124.531C93.3374 126.911 93.1974 129.301 92.9374 131.671L92.8174 132.671C92.7174 133.461 92.6174 134.241 92.4874 135.031C92.3174 136.031 92.1274 137.031 91.8774 138.031C91.4714 139.487 90.9669 140.914 90.3674 142.301C89.7492 143.909 88.9649 145.447 88.0274 146.891C87.389 147.837 86.6254 148.691 85.7574 149.431C85.245 149.859 84.6885 150.231 84.0974 150.541C83.2013 151.004 82.276 151.409 81.3274 151.751C80.8574 151.931 80.3874 152.091 79.9174 152.251C79.4449 152.416 78.9642 152.556 78.4774 152.671C77.8221 152.826 77.1508 152.903 76.4774 152.901C76.4598 152.907 76.4445 152.919 76.4337 152.934C76.4228 152.949 76.417 152.968 76.417 152.986C76.417 153.005 76.4228 153.023 76.4337 153.038C76.4445 153.054 76.4598 153.065 76.4774 153.071L76.5074 153.091Z" fill="black"/>
<path fill-rule="evenodd" clip-rule="evenodd" d="M77.7674 175.381C77.7993 175.356 77.8263 175.326 77.8474 175.291C77.9519 174.967 78.0191 174.631 78.0474 174.291C78.6974 171.071 79.4075 167.831 80.1775 164.601C80.7475 162.211 81.3575 159.831 81.9875 157.481C82.4575 155.721 83.0974 154.021 83.5974 152.261C83.7174 151.821 83.8275 151.381 83.9275 150.931C83.9323 150.895 83.9234 150.857 83.9024 150.827C83.8815 150.796 83.8499 150.775 83.8139 150.766C83.7779 150.757 83.74 150.762 83.7074 150.78C83.6748 150.797 83.6499 150.826 83.6374 150.861C83.5374 151.211 83.4274 151.561 83.3274 151.861C82.9074 153.261 82.4474 154.641 82.0174 156.031C81.8874 156.461 81.7574 156.901 81.6374 157.351C80.6974 160.881 79.8074 164.471 79.0074 168.071C78.5274 170.231 78.0774 172.401 77.6674 174.561C77.6674 174.751 77.5974 174.941 77.5674 175.141C77.5613 175.158 77.5613 175.175 77.5674 175.191C77.5674 175.191 77.5674 175.251 77.5674 175.291C77.5645 175.303 77.564 175.314 77.5661 175.326C77.5681 175.337 77.5726 175.348 77.5793 175.358C77.5859 175.367 77.5946 175.375 77.6046 175.381C77.6147 175.387 77.6259 175.39 77.6374 175.391C77.6465 175.4 77.6571 175.406 77.6687 175.41C77.6802 175.414 77.6924 175.415 77.7046 175.414C77.7167 175.413 77.7286 175.41 77.7394 175.404C77.7502 175.399 77.7597 175.391 77.7674 175.381Z" fill="black"/>
<path d="M91.5431 20.0199L82.0174 29.6425L88.8115 36.3681L98.3371 26.7455L91.5431 20.0199Z" fill="#F4D27F"/>
<path fill-rule="evenodd" clip-rule="evenodd" d="M25.9074 22.4413C25.9074 22.5513 25.9074 22.6513 25.9074 22.7613C25.9074 22.8713 25.9074 23.0813 25.9074 23.2413C25.8174 25.6313 25.5974 28.0213 25.4474 30.4113C25.4474 31.0813 25.3674 31.7413 25.3474 32.4113C25.346 32.4239 25.3473 32.4368 25.3512 32.4489C25.3551 32.461 25.3615 32.4721 25.37 32.4815C25.3785 32.491 25.3889 32.4985 25.4005 32.5037C25.4122 32.5088 25.4247 32.5114 25.4374 32.5113C25.464 32.5113 25.4894 32.5008 25.5081 32.4821C25.5269 32.4633 25.5374 32.4378 25.5374 32.4113C25.6474 29.7513 25.9274 27.1013 26.0674 24.4113C26.0674 23.8713 26.1374 23.3413 26.1374 22.8113C26.1374 22.6713 26.1374 22.5413 26.1374 22.4113C26.1422 22.3978 26.1436 22.3833 26.1415 22.369C26.1395 22.3548 26.1341 22.3413 26.1258 22.3296C26.1175 22.3179 26.1065 22.3083 26.0937 22.3018C26.081 22.2952 26.0668 22.2917 26.0525 22.2917C26.0381 22.2917 26.0239 22.2952 26.0112 22.3018C25.9984 22.3083 25.9874 22.3179 25.9791 22.3296C25.9708 22.3413 25.9654 22.3548 25.9633 22.369C25.9613 22.3833 25.9627 22.3978 25.9674 22.4113L25.9074 22.4413Z" fill="#29DA6B"/>
<path fill-rule="evenodd" clip-rule="evenodd" d="M23.3174 26.1713C23.3774 26.2213 23.4174 26.2813 23.4774 26.3313C24.0322 26.7067 24.6138 27.0409 25.2174 27.3313C26.2174 27.8713 27.2174 28.3813 28.2174 28.8913C28.248 28.9052 28.2828 28.9068 28.3145 28.8956C28.3462 28.8844 28.3724 28.8614 28.3874 28.8313C28.4021 28.8019 28.4052 28.768 28.3959 28.7365C28.3866 28.7049 28.3657 28.6781 28.3375 28.6613L27.0074 27.9613C26.0074 27.4013 25.0074 26.8413 23.9474 26.2513C23.8409 26.1821 23.7308 26.1187 23.6175 26.0613H23.4474C23.4399 26.0528 23.4307 26.046 23.4204 26.0413C23.41 26.0367 23.3988 26.0342 23.3874 26.0342C23.3761 26.0342 23.3649 26.0367 23.3545 26.0413C23.3442 26.046 23.3349 26.0528 23.3274 26.0613C23.3138 26.076 23.3054 26.0947 23.3036 26.1146C23.3018 26.1345 23.3066 26.1545 23.3174 26.1713Z" fill="#29DA6B"/>
<path fill-rule="evenodd" clip-rule="evenodd" d="M24.6874 25.0013C24.7252 25.1311 24.772 25.258 24.8274 25.3813C24.8274 25.4613 24.8974 25.5413 24.9374 25.6313C25.3174 26.4213 25.6974 27.2513 26.0474 28.0813C26.2774 28.6313 26.4974 29.1913 26.6974 29.7413C26.6974 29.8313 26.7574 29.9113 26.7974 29.9913L26.8874 30.1513C26.8908 30.1648 26.897 30.1774 26.9055 30.1884C26.914 30.1993 26.9248 30.2084 26.937 30.215C26.9492 30.2216 26.9627 30.2255 26.9765 30.2266C26.9904 30.2277 27.0043 30.2259 27.0174 30.2213C27.0436 30.2103 27.0644 30.1895 27.0756 30.1634C27.0868 30.1373 27.0874 30.1079 27.0774 30.0813C27.0822 30.0281 27.0822 29.9746 27.0774 29.9213C27.0774 29.7913 26.9974 29.6713 26.9574 29.5413C26.7074 28.8413 26.4174 28.1413 26.1074 27.4513C25.7974 26.7613 25.4874 26.0713 25.1074 25.4513C25.0847 25.3993 25.058 25.3492 25.0274 25.3013C24.9633 25.1845 24.8932 25.071 24.8174 24.9613C24.8026 24.9473 24.7829 24.9394 24.7624 24.9394C24.742 24.9394 24.7223 24.9473 24.7074 24.9613C24.6975 24.9728 24.6906 24.9865 24.6874 25.0013Z" fill="#29DA6B"/>
<path fill-rule="evenodd" clip-rule="evenodd" d="M23.6175 28.8013L24.1374 28.4813C24.8174 28.0413 25.4874 27.5714 26.1374 27.1514C26.7874 26.7314 27.3175 26.4714 27.9275 26.1514C27.954 26.1368 27.9736 26.1122 27.9821 26.0832C27.9905 26.0541 27.987 26.0229 27.9724 25.9964C27.9579 25.9698 27.9333 25.9502 27.9043 25.9418C27.8752 25.9333 27.844 25.9368 27.8174 25.9513C26.8954 26.4044 25.9975 26.905 25.1274 27.4513C24.7274 27.7113 24.3174 27.9614 23.9374 28.2514C23.7674 28.3814 23.6174 28.5214 23.4674 28.6514C23.4541 28.6558 23.442 28.6633 23.432 28.6733C23.4221 28.6833 23.4147 28.6955 23.4103 28.7089C23.406 28.7223 23.4048 28.7365 23.407 28.7504C23.4091 28.7644 23.4145 28.7776 23.4227 28.789C23.4309 28.8005 23.4416 28.8099 23.4541 28.8164C23.4666 28.823 23.4804 28.8265 23.4945 28.8267C23.5086 28.8269 23.5225 28.8238 23.5352 28.8177C23.5479 28.8116 23.5589 28.8025 23.5674 28.7913L23.6175 28.8013Z" fill="#29DA6B"/>
<path fill-rule="evenodd" clip-rule="evenodd" d="M112.037 79.5413H112.167L112.387 79.4613C113.497 79.0413 114.607 78.6214 115.727 78.2614C116.557 77.9914 117.397 77.7313 118.247 77.5213C118.279 77.5121 118.306 77.492 118.325 77.4646C118.343 77.4371 118.351 77.4041 118.347 77.3714C118.338 77.3377 118.316 77.3089 118.287 77.2904C118.257 77.2719 118.222 77.265 118.187 77.2713C117.117 77.5313 116.057 77.8414 115.017 78.1914C113.977 78.5414 113.147 78.8514 112.227 79.1914C112.175 79.2086 112.124 79.2321 112.077 79.2614C112.027 79.2889 111.98 79.3225 111.937 79.3613C111.917 79.3702 111.9 79.3864 111.891 79.4067C111.882 79.427 111.881 79.4501 111.887 79.4713C111.878 79.4912 111.877 79.514 111.885 79.5346C111.892 79.5553 111.908 79.5721 111.927 79.5814C111.947 79.5907 111.97 79.5916 111.991 79.5841C112.011 79.5766 112.028 79.5612 112.037 79.5413Z" fill="#29DA6B"/>
<path fill-rule="evenodd" clip-rule="evenodd" d="M114.247 75.3013C114.27 75.3631 114.297 75.4233 114.327 75.4813C114.607 76.0913 114.917 76.6814 115.247 77.2614C115.577 77.8414 116.047 78.5814 116.477 79.2614L116.877 79.8314L117.067 80.0613C117.078 80.0722 117.09 80.0809 117.104 80.0869C117.118 80.0928 117.132 80.0958 117.147 80.0958C117.162 80.0958 117.177 80.0928 117.191 80.0869C117.205 80.0809 117.217 80.0722 117.227 80.0613C117.246 80.041 117.257 80.0142 117.257 79.9863C117.257 79.9585 117.246 79.9317 117.227 79.9113C117.167 79.8113 117.117 79.7113 117.057 79.6213L116.637 78.9713C116.337 78.5113 116.047 78.0514 115.757 77.5814C115.337 76.8714 114.947 76.1513 114.597 75.4013L114.487 75.1813C114.317 75.1013 114.627 75.1313 114.487 75.1813C114.467 75.1624 114.44 75.1518 114.412 75.1518C114.385 75.1518 114.358 75.1624 114.337 75.1813C114.311 75.1924 114.29 75.2132 114.279 75.2393C114.268 75.2654 114.267 75.2948 114.277 75.3214L114.247 75.3013Z" fill="#29DA6B"/>
<path fill-rule="evenodd" clip-rule="evenodd" d="M114.547 81.4613C114.547 81.4613 114.637 81.3713 114.677 81.3113C114.717 81.2513 114.757 81.1313 114.797 81.0413C115.377 79.7013 116.067 78.4113 116.707 77.1013C116.827 76.8413 116.957 76.5813 117.067 76.3213C117.177 76.0613 117.157 76.0913 117.207 75.9813C117.213 75.9585 117.211 75.9344 117.2 75.9133C117.19 75.8921 117.173 75.8753 117.151 75.8658C117.13 75.8562 117.105 75.8546 117.083 75.8611C117.06 75.8676 117.041 75.8818 117.027 75.9013C116.897 76.1513 116.757 76.3913 116.617 76.6513C116.087 77.6513 115.567 78.6513 115.077 79.6513C114.798 80.1293 114.57 80.6354 114.397 81.1613C114.387 81.2276 114.387 81.295 114.397 81.3613C114.383 81.3762 114.376 81.3959 114.376 81.4163C114.376 81.4368 114.383 81.4565 114.397 81.4713C114.406 81.4832 114.418 81.4927 114.432 81.4988C114.445 81.505 114.46 81.5077 114.475 81.5067C114.49 81.5057 114.504 81.5011 114.517 81.4932C114.53 81.4852 114.54 81.4743 114.547 81.4613Z" fill="#29DA6B"/>
<path fill-rule="evenodd" clip-rule="evenodd" d="M113.457 76.5614C113.475 76.5895 113.499 76.6134 113.527 76.6314C113.6 76.6759 113.677 76.7127 113.757 76.7414C114.757 77.2014 115.707 77.6814 116.757 78.1214C117.277 78.3514 117.757 78.5814 118.337 78.7614L118.817 78.9113L119.037 78.9613C119.049 78.9653 119.062 78.9668 119.074 78.966C119.087 78.9651 119.099 78.9618 119.11 78.9562C119.121 78.9506 119.131 78.9429 119.139 78.9335C119.147 78.9241 119.153 78.9131 119.157 78.9013C119.161 78.8895 119.163 78.8771 119.162 78.8646C119.161 78.8522 119.158 78.8401 119.152 78.8289C119.147 78.8178 119.139 78.8079 119.13 78.7997C119.12 78.7915 119.109 78.7853 119.097 78.7813L118.697 78.6013L118.097 78.3613C116.767 77.8213 115.427 77.1814 114.097 76.5714C113.958 76.4905 113.81 76.4235 113.657 76.3714C113.625 76.3607 113.59 76.3607 113.557 76.3714C113.537 76.3637 113.514 76.364 113.493 76.3721C113.473 76.3803 113.456 76.3957 113.446 76.4155C113.436 76.4353 113.434 76.4582 113.44 76.4795C113.445 76.5009 113.459 76.5193 113.477 76.5313L113.457 76.5614Z" fill="#29DA6B"/>
<path fill-rule="evenodd" clip-rule="evenodd" d="M27.8774 101.781H28.0974C28.7674 101.781 29.3874 101.651 30.0274 101.671C30.6674 101.691 31.2974 101.771 31.9574 101.811H32.1674C32.184 101.814 32.2009 101.813 32.2172 101.809C32.2334 101.805 32.2487 101.798 32.2619 101.787C32.275 101.777 32.2859 101.764 32.2938 101.749C32.3016 101.734 32.3063 101.718 32.3074 101.701C32.3103 101.684 32.3097 101.667 32.3056 101.65C32.3016 101.633 32.2943 101.617 32.284 101.603C32.2738 101.589 32.2608 101.577 32.246 101.568C32.2311 101.56 32.2146 101.554 32.1974 101.551H31.9374C31.1564 101.434 30.3672 101.38 29.5774 101.391C29.1088 101.385 28.6405 101.419 28.1774 101.491H27.9974C27.942 101.517 27.8886 101.548 27.8374 101.581C27.8239 101.577 27.8094 101.575 27.7952 101.577C27.7809 101.579 27.7674 101.585 27.7557 101.593C27.744 101.601 27.7345 101.612 27.7279 101.625C27.7213 101.638 27.7178 101.652 27.7178 101.666C27.7178 101.681 27.7213 101.695 27.7279 101.708C27.7345 101.72 27.744 101.731 27.7557 101.74C27.7674 101.748 27.7809 101.753 27.7952 101.755C27.8094 101.757 27.8239 101.756 27.8374 101.751L27.8774 101.781Z" fill="#29DA6B"/>
<path fill-rule="evenodd" clip-rule="evenodd" d="M29.9074 99.4313C29.8722 99.5013 29.8454 99.5751 29.8274 99.6513C29.7844 100.323 29.8451 100.998 30.0074 101.651C30.1292 102.522 30.3062 103.383 30.5374 104.231C30.5874 104.401 30.6274 104.571 30.6874 104.731C30.7083 104.769 30.7251 104.81 30.7374 104.851C30.7468 104.887 30.77 104.918 30.8018 104.936C30.8337 104.955 30.8716 104.96 30.9074 104.951C30.9418 104.94 30.9709 104.916 30.9893 104.885C31.0077 104.854 31.0141 104.817 31.0074 104.781C31.0074 104.601 30.9374 104.431 30.8974 104.251C30.7374 103.541 30.5574 102.841 30.4374 102.131C30.3174 101.421 30.2674 100.531 30.1674 99.7213C30.1722 99.6781 30.1722 99.6345 30.1674 99.5913C30.148 99.546 30.1246 99.5025 30.0974 99.4613C30.0974 99.4374 30.0879 99.4146 30.0711 99.3977C30.0542 99.3808 30.0313 99.3713 30.0074 99.3713C29.9863 99.3678 29.9647 99.3719 29.9464 99.3829C29.9281 99.3939 29.9143 99.4111 29.9074 99.4313Z" fill="#29DA6B"/>
<path fill-rule="evenodd" clip-rule="evenodd" d="M28.0674 104.971L28.4774 104.431L28.6474 104.191C29.0774 103.581 29.5174 102.961 29.9674 102.371C30.4174 101.781 30.9074 101.181 31.3774 100.591C31.5374 100.391 31.7074 100.191 31.8574 99.9813L31.9674 99.8214C31.9762 99.8129 31.9832 99.8029 31.988 99.7917C31.9927 99.7805 31.9952 99.7685 31.9952 99.7563C31.9952 99.7442 31.9927 99.7322 31.988 99.721C31.9832 99.7098 31.9762 99.6997 31.9674 99.6913C31.959 99.6826 31.9489 99.6756 31.9378 99.6708C31.9266 99.6661 31.9146 99.6636 31.9024 99.6636C31.8903 99.6636 31.8783 99.6661 31.8671 99.6708C31.8559 99.6756 31.8458 99.6826 31.8374 99.6913L31.7274 99.7913C31.5774 99.9413 31.4474 100.101 31.3074 100.261C30.6374 101.041 29.9874 101.861 29.3574 102.691C28.9974 103.181 28.6274 103.691 28.3574 104.181C28.2174 104.411 28.1074 104.641 27.9774 104.871C27.9645 104.889 27.9574 104.91 27.9574 104.931C27.9574 104.953 27.9645 104.974 27.9774 104.991C27.9928 104.996 28.0093 104.997 28.0252 104.994C28.041 104.99 28.0556 104.982 28.0674 104.971Z" fill="#29DA6B"/>
<path fill-rule="evenodd" clip-rule="evenodd" d="M28.6374 100.071C29.0074 100.421 29.3674 100.781 29.7174 101.141L31.3474 102.751C31.6174 103.011 31.8974 103.281 32.1874 103.531L32.5674 103.851C32.5942 103.866 32.6254 103.871 32.6554 103.865C32.6854 103.859 32.7124 103.842 32.7315 103.819C32.7506 103.795 32.7607 103.765 32.7599 103.734C32.7592 103.704 32.7477 103.674 32.7274 103.651L32.1774 103.141C31.4374 102.441 30.7374 101.711 29.9974 101.021C29.5974 100.641 29.1774 100.291 28.7574 99.9413C28.749 99.9326 28.7389 99.9256 28.7278 99.9208C28.7166 99.9161 28.7046 99.9136 28.6924 99.9136C28.6803 99.9136 28.6683 99.9161 28.6571 99.9208C28.6459 99.9256 28.6358 99.9326 28.6274 99.9413C28.6193 99.9504 28.613 99.961 28.6091 99.9725C28.6052 99.9841 28.6036 99.9963 28.6046 100.008C28.6055 100.021 28.6089 100.032 28.6145 100.043C28.6202 100.054 28.628 100.064 28.6374 100.071Z" fill="#29DA6B"/>
<path fill-rule="evenodd" clip-rule="evenodd" d="M97.1674 1.19135C93.3474 -0.678652 89.5774 -0.118667 85.9074 1.30133C82.2374 2.72133 78.8374 4.90132 75.4874 6.38132C74.3598 6.82661 73.1746 7.10946 71.9674 7.22135C70.7194 7.3417 69.4925 7.62407 68.3174 8.06134C68.2702 8.08104 68.2272 8.10986 68.1911 8.14615C68.1549 8.18244 68.1263 8.22547 68.1068 8.27283C68.0873 8.32019 68.0773 8.37094 68.0774 8.42215C68.0775 8.47337 68.0877 8.52405 68.1074 8.57132C68.126 8.61947 68.1542 8.66336 68.1903 8.70026C68.2263 8.73716 68.2696 8.7663 68.3173 8.78595C68.365 8.8056 68.4162 8.81534 68.4679 8.81455C68.5195 8.81375 68.5704 8.80246 68.6174 8.78134C69.7313 8.36963 70.8947 8.10735 72.0774 8.00135C73.3583 7.88015 74.6147 7.57362 75.8075 7.09134C79.1475 5.62134 82.6174 3.42134 86.1874 2.03134C89.7574 0.641344 93.1874 0.13133 96.8274 1.89133C96.8738 1.91789 96.9252 1.93464 96.9783 1.94052C97.0314 1.94641 97.0851 1.9413 97.1362 1.92554C97.1873 1.90978 97.2346 1.88371 97.2751 1.84891C97.3157 1.81412 97.3487 1.77137 97.3721 1.7233C97.3954 1.67523 97.4086 1.62286 97.4109 1.56946C97.4131 1.51606 97.4044 1.46276 97.3852 1.41287C97.3661 1.36299 97.3368 1.31759 97.2994 1.27948C97.2619 1.24137 97.217 1.21138 97.1674 1.19135Z" fill="#29DA6B"/>
<defs>
<linearGradient id="paint0_linear_1_1191" x1="61.8337" y1="74.8324" x2="70.4577" y2="122.11" gradientUnits="userSpaceOnUse">
<stop stop-color="#FF8839"/>
<stop offset="0.13" stop-color="#FFAA5E"/>
<stop offset="0.26" stop-color="#FFB66B"/>
<stop offset="1" stop-color="#E3A151"/>
</linearGradient>
</defs>
</svg>
