<svg width="154" height="166" viewBox="0 0 154 166" fill="none" xmlns="http://www.w3.org/2000/svg">
<path fill-rule="evenodd" clip-rule="evenodd" d="M39.9274 32.1442C35.0974 38.2542 32.6773 43.6142 30.6673 47.2042C25.0273 57.2642 20.5873 68.4142 21.0173 80.1342C21.0842 82.3434 21.42 84.5362 22.0173 86.6642C22.4426 88.1395 22.9878 89.5776 23.6473 90.9642C28.0573 100.884 34.6474 96.1342 40.8574 90.9642C43.3154 88.7309 46.0594 86.8342 49.0173 85.3242C49.8073 84.9742 51.3673 84.3242 51.8373 85.4742C53.3873 89.0942 50.2773 94.4742 49.1673 97.7842C45.8873 107.634 39.0473 117.414 38.6373 128.054C38.3973 134.184 39.7673 142.504 47.8373 141.554C52.2773 141.034 55.2274 137.234 58.3674 134.434C66.6574 127.014 72.9874 117.434 81.3674 110.254C86.7074 105.644 92.4974 101.324 99.3174 99.2542C103.407 98.0242 108.567 98.7842 112.377 96.8842C114.917 95.6142 116.867 93.1542 118.907 91.2441C128.847 81.9241 137.187 65.4842 129.907 51.9242C127.417 47.3042 121.417 45.9242 116.547 47.0342C107.747 48.9842 94.9273 55.5442 88.2173 46.1442C83.7973 39.9542 82.4274 31.6242 85.6974 24.6342C86.0374 23.9042 87.8473 20.6342 88.2173 20.0342C89.1202 18.4876 90.1223 17.0012 91.2173 15.5842C94.2173 11.4242 102.697 0.00415709 91.3574 0.00415709C89.9991 -0.0322619 88.6451 0.170847 87.3574 0.604163C85.3574 1.27416 83.1874 1.60417 81.1274 2.23417C78.1254 3.14773 75.197 4.28767 72.3674 5.64417C67.7457 7.81431 63.328 10.3946 59.1674 13.3542C51.964 18.7539 45.496 25.0706 39.9274 32.1442Z" fill="#F9F1D5"/>
<path fill-rule="evenodd" clip-rule="evenodd" d="M120.757 73.0142C120.687 73.0642 120.637 73.0641 120.587 73.1241C120.548 73.1946 120.515 73.2682 120.487 73.3442C119.989 74.4549 119.403 75.5249 118.737 76.5442C117.847 77.9242 116.857 79.2642 115.967 80.6042C115.737 80.9642 115.527 81.3142 115.317 81.6642L115.877 82.0242L116.297 81.4341C117.487 79.6941 118.767 77.8742 119.837 76.0042C120.309 75.1904 120.723 74.3451 121.077 73.4742C121.104 73.4318 121.121 73.384 121.127 73.3342C121.131 73.2672 121.114 73.2007 121.077 73.1442L120.757 73.0142Z" fill="#F56C2C"/>
<path fill-rule="evenodd" clip-rule="evenodd" d="M115.527 75.1741C115.527 75.2841 115.527 75.3442 115.527 75.4442L115.587 75.5242C115.857 75.8642 116.137 76.1842 116.437 76.5242C117.597 77.7542 118.897 78.8242 120.067 80.0242L120.407 80.3842C120.577 80.5642 120.757 80.7242 120.927 80.9042L121.527 80.4042C121.327 80.1442 121.137 79.8842 120.917 79.6442C120.601 79.2943 120.267 78.9605 119.917 78.6442C118.707 77.5342 117.427 76.4942 116.307 75.2842C116.227 75.2042 116.177 75.1041 116.087 75.0541C115.997 75.0041 115.927 75.0542 115.827 74.9842L115.527 75.1741Z" fill="#F56C2C"/>
<path fill-rule="evenodd" clip-rule="evenodd" d="M114.557 78.7042C114.942 78.753 115.33 78.7764 115.717 78.7742C116.1 78.7454 116.481 78.6919 116.857 78.6141C118.577 78.3141 120.317 77.7742 121.987 77.4842L121.857 76.7242C120.417 76.9842 118.927 77.4042 117.437 77.7242C116.857 77.8542 116.277 77.9441 115.697 78.0641C115.307 78.1541 114.937 78.2642 114.537 78.3342L114.557 78.7042Z" fill="#F56C2C"/>
<path fill-rule="evenodd" clip-rule="evenodd" d="M117.617 74.7342C117.617 75.0942 117.617 75.4642 117.687 75.8442C117.757 76.2242 117.687 76.3342 117.757 76.5742C117.907 77.9942 117.997 79.4541 118.057 80.8741C118.047 81.0373 118.047 81.201 118.057 81.3641C118.053 81.3973 118.053 81.431 118.057 81.4642L118.117 81.5641H118.657C118.682 81.5242 118.699 81.4801 118.707 81.4341C118.718 81.3377 118.718 81.2406 118.707 81.1442C118.707 79.9142 118.597 78.6542 118.467 77.4142C118.407 76.9442 118.367 76.4842 118.277 76.0342C118.187 75.5842 118.047 75.1241 117.917 74.6841L117.617 74.7342Z" fill="#F56C2C"/>
<path fill-rule="evenodd" clip-rule="evenodd" d="M25.1674 67.0942C24.9474 67.9742 24.6574 68.8141 24.4074 69.6841C24.0374 70.9841 23.7074 72.2942 23.4074 73.6042C23.2474 74.2642 23.0774 74.9242 22.9774 75.6042C22.9239 75.8335 22.9004 76.0688 22.9074 76.3041C22.898 76.3638 22.898 76.4246 22.9074 76.4842L23.5173 76.5842L23.6074 76.4642C23.669 76.2986 23.7158 76.128 23.7474 75.9542C24.1274 74.3742 24.4573 72.8042 24.8273 71.2342C24.9173 70.8442 25.0173 70.4442 25.0873 70.0442C25.2773 69.0442 25.3974 68.1242 25.4974 67.1542L25.1674 67.0942Z" fill="#F56C2C"/>
<path fill-rule="evenodd" clip-rule="evenodd" d="M20.1674 69.1241C20.5127 69.3182 20.8465 69.5319 21.1674 69.7642L21.8373 70.2042C22.3973 70.5842 22.9474 70.9842 23.5074 71.3842C24.2374 71.8842 25.0274 72.3841 25.7974 72.9941C26.5674 73.6041 27.0673 74.0842 27.6573 74.6042C27.704 74.6497 27.7582 74.6869 27.8174 74.7142C27.8174 74.7142 27.8774 74.7142 27.9174 74.7142L28.4274 74.2441C28.4324 74.2144 28.4324 74.184 28.4274 74.1542C28.3858 74.0674 28.3281 73.9894 28.2574 73.9241C27.9549 73.5614 27.6202 73.2267 27.2574 72.9241C26.2574 72.0841 25.0374 71.3342 23.9874 70.6442C23.1989 70.0769 22.3738 69.5624 21.5173 69.1042C21.1254 68.9345 20.7164 68.8071 20.2974 68.7242L20.1674 69.1241Z" fill="#F56C2C"/>
<path fill-rule="evenodd" clip-rule="evenodd" d="M22.5874 67.2242C22.4974 67.3242 22.4974 67.2242 22.4674 67.3442C22.4374 67.4642 22.4674 67.4142 22.4674 67.4442C22.6374 67.9442 22.8274 68.4441 23.0274 68.9241C23.8207 70.8641 24.6607 72.7808 25.5474 74.6741L25.8574 75.2942L26.6974 74.9241C26.6074 74.6841 26.5274 74.4242 26.4174 74.1842C25.4974 72.0242 24.3174 69.9942 23.3574 67.8342C23.2474 67.6042 23.2474 67.2842 23.0374 67.1342C22.8274 66.9842 22.9774 67.1342 22.8674 67.1342L22.5874 67.2242Z" fill="#F56C2C"/>
<path fill-rule="evenodd" clip-rule="evenodd" d="M22.1074 72.7642C22.4674 72.6442 22.8274 72.5541 23.1874 72.4241L23.7974 72.1642L24.7073 71.7441C25.4892 71.4165 26.2477 71.0357 26.9774 70.6042C27.039 70.5722 27.0934 70.528 27.1373 70.4742C27.1373 70.4742 27.1373 70.4141 27.1373 70.3741L26.7874 69.7542C26.7874 69.7542 26.7874 69.7542 26.6974 69.7542C26.5952 69.7741 26.4971 69.8113 26.4073 69.8641C25.3473 70.3641 24.2874 70.8642 23.2574 71.4542C23.0674 71.5642 22.8674 71.6841 22.6874 71.8141C22.4093 72.027 22.1422 72.254 21.8873 72.4941L22.1074 72.7642Z" fill="#F56C2C"/>
<path fill-rule="evenodd" clip-rule="evenodd" d="M115.107 121.294C115.653 120.289 116.471 119.457 117.467 118.894C117.885 118.666 118.333 118.498 118.797 118.394C120.867 117.954 123.257 118.754 125.607 119.394C127.16 119.895 128.786 120.132 130.417 120.094C132.119 120.034 133.732 119.317 134.917 118.094C135.379 117.615 135.785 117.085 136.127 116.514C136.463 115.958 136.754 115.376 136.997 114.774C137.127 114.484 137.217 114.174 137.327 113.864L136.767 113.624C136.647 113.824 136.527 114.014 136.417 114.214L135.957 115.104C135.412 116.258 134.624 117.282 133.647 118.104C132.696 118.826 131.55 119.244 130.357 119.304C128.816 119.339 127.279 119.122 125.807 118.664C123.337 118.024 120.807 117.274 118.647 117.774C118.115 117.893 117.606 118.095 117.137 118.374C116.099 119.061 115.285 120.038 114.797 121.184L115.107 121.294Z" fill="#A14DF6"/>
<path fill-rule="evenodd" clip-rule="evenodd" d="M34.8174 103.784C34.9374 103.684 34.9374 103.784 34.9974 103.634C34.9974 103.524 34.9974 103.404 34.9474 103.294C34.7245 101.812 34.2689 100.374 33.5973 99.0342C32.8328 97.5169 31.6717 96.2348 30.2373 95.3242C28.4066 94.3056 26.4636 93.5035 24.4474 92.9341C23.1843 92.5892 22.0108 91.9752 21.0074 91.1342C19.8374 89.9942 19.2473 88.2242 19.5773 85.0342L18.8973 84.9542C18.4173 88.4942 19.0974 90.4842 20.3774 91.7642C21.4696 92.7086 22.7621 93.3925 24.1573 93.7642C26.1128 94.2991 27.9989 95.061 29.7773 96.0342C30.8291 96.68 31.7213 97.5551 32.3873 98.5942C33.2873 100.032 33.8988 101.632 34.1874 103.304C34.1874 103.454 34.1873 103.634 34.2673 103.754C34.3473 103.874 34.3473 103.754 34.4873 103.834L34.8174 103.784Z" fill="#A14DF6"/>
<path fill-rule="evenodd" clip-rule="evenodd" d="M48.8474 35.0242C48.8474 34.4242 48.8474 33.8342 48.8474 33.2442C48.791 31.8508 48.6541 30.4618 48.4374 29.0842C48.2567 27.7497 47.9211 26.4409 47.4374 25.1842C46.7844 23.7209 46.0257 22.3072 45.1674 20.9542C44.6093 20.065 44.0986 19.1471 43.6373 18.2042C43.3536 17.6191 43.113 17.0142 42.9174 16.3942L42.3273 16.5641C42.561 17.5527 42.8961 18.5145 43.3273 19.4342C43.6273 20.0642 43.9573 20.6842 44.3273 21.3042C45.1691 22.6738 45.9207 24.0968 46.5773 25.5641C46.9405 26.4533 47.2217 27.3738 47.4174 28.3141C47.7574 29.8841 47.8473 31.4642 48.0873 33.0542C48.1973 33.7442 48.3573 34.4142 48.5173 35.1042L48.8474 35.0242Z" fill="#A14DF6"/>
<path fill-rule="evenodd" clip-rule="evenodd" d="M138.897 65.3041C139.384 64.5122 140.031 63.8309 140.797 63.3041C141.927 62.6247 143.124 62.0618 144.367 61.6241C145.215 61.2917 146.026 60.8728 146.787 60.3741C147.711 59.7071 148.516 58.8889 149.167 57.9542C150.108 56.5828 150.925 55.1304 151.607 53.6142L151.187 53.4042C150.455 54.8564 149.602 56.2446 148.637 57.5541C148.002 58.4041 147.232 59.144 146.357 59.7441C145.634 60.2297 144.867 60.6481 144.067 60.9941C142.813 61.4998 141.619 62.1438 140.507 62.9142C139.713 63.4947 139.052 64.2379 138.567 65.0942L138.897 65.3041Z" fill="#279FF2"/>
<path fill-rule="evenodd" clip-rule="evenodd" d="M29.0273 85.7242C29.1732 85.8087 29.3234 85.8855 29.4774 85.9541C29.5781 85.9901 29.6818 86.0169 29.7874 86.0341C32.7874 86.7441 34.4974 87.9441 35.4874 89.6841C36.7274 91.8641 36.7774 94.6842 36.6774 97.7942C36.6774 98.5142 36.6174 99.2442 36.6074 99.9742C36.6074 100.464 36.6074 100.974 36.6074 101.444H37.1373C37.1973 100.954 37.2773 100.444 37.3273 99.9941C37.4073 99.2541 37.4474 98.5142 37.4874 97.7942C37.6474 94.5542 37.4874 91.5441 36.1674 89.2541C35.0674 87.3541 33.1673 85.9341 29.9073 85.3141C29.8243 85.3037 29.7404 85.3037 29.6573 85.3141C29.4582 85.3168 29.2601 85.3437 29.0674 85.3941L29.0273 85.7242Z" fill="#279FF2"/>
<path fill-rule="evenodd" clip-rule="evenodd" d="M119.427 116.694C119.536 116.589 119.636 116.475 119.727 116.354C119.807 116.234 119.847 116.094 119.907 115.984C120.302 114.988 121.07 114.184 122.047 113.744C122.82 113.456 123.634 113.294 124.457 113.264C125.785 113.214 127.104 113.037 128.397 112.734C129.577 112.375 130.663 111.761 131.577 110.934C132.654 109.984 133.599 108.894 134.387 107.694C134.597 107.384 134.767 107.084 134.947 106.784L134.497 106.484C134.297 106.754 134.067 107.014 133.847 107.294C133.014 108.386 132.073 109.391 131.037 110.294C130.212 111.048 129.233 111.614 128.167 111.954C125.747 112.634 123.487 112.274 121.737 113.044C121.062 113.284 120.462 113.697 119.998 114.244C119.535 114.79 119.224 115.449 119.097 116.154C119.082 116.311 119.082 116.468 119.097 116.624L119.427 116.694Z" fill="#279FF2"/>
<path fill-rule="evenodd" clip-rule="evenodd" d="M116.507 42.6742C116.507 42.3642 141.957 41.9242 141.957 41.9242C141.957 41.9242 139.957 60.3842 133.037 60.3842C126.117 60.3842 116.507 56.7742 116.507 42.6742Z" fill="#E1EBFF"/>
<path fill-rule="evenodd" clip-rule="evenodd" d="M131.687 60.1442C121.607 60.1442 118.807 42.1442 118.807 32.0942C118.807 22.0442 118.017 1.09418 108.807 1.09418C99.5974 1.09418 90.3273 18.1542 90.3273 18.1542L95.1274 42.2042L105.127 60.3741L131.687 60.1442Z" fill="#C2C5D6"/>
<path fill-rule="evenodd" clip-rule="evenodd" d="M98.0173 140.584C98.0173 120.814 97.6073 60.7042 96.6373 40.5842C87.9473 38.1342 78.7173 38.0942 69.2073 38.6942C56.2873 39.5042 48.5573 40.6942 46.1173 43.9642C43.1173 47.9042 44.1173 61.5742 44.3573 65.9642C45.8673 94.7642 46.3573 94.6842 49.3573 123.324C49.8573 128.234 49.4973 135.034 53.0273 139.214C55.5573 142.214 61.2774 142.214 64.5674 142.394C78.6574 143.124 78.6273 143.074 92.7173 141.664C94.5197 141.51 96.2982 141.147 98.0173 140.584Z" fill="#CFCFD3"/>
<path fill-rule="evenodd" clip-rule="evenodd" d="M96.6373 40.5742C97.6373 60.7042 97.9873 120.814 98.0173 140.574C100.777 139.574 103.167 137.924 104.167 134.844C105.097 131.994 105.167 127.714 105.367 124.754C106.077 115.434 106.917 106.124 107.537 96.7542C108.297 85.1741 108.964 73.5875 109.537 61.9941C109.787 56.8941 110.137 51.5742 107.397 46.9942C105.467 43.8042 101.167 41.8642 97.8574 40.8442L96.6373 40.5742Z" fill="black"/>
<path fill-rule="evenodd" clip-rule="evenodd" d="M53.1674 47.8342C53.2874 36.2542 54.3574 14.1642 71.7474 1.16415C71.9874 0.974152 108.807 1.27417 108.807 1.27417C108.807 1.27417 96.4874 3.13416 88.2374 46.1742C88.2974 46.5342 53.0474 47.8542 53.1674 47.8342Z" fill="#E1EBFF"/>
<path d="M92.6006 61.2155L48.3557 62.7065L49.1307 85.7034L93.3755 84.2124L92.6006 61.2155Z" fill="#878FEC"/>
<path fill-rule="evenodd" clip-rule="evenodd" d="M88.8074 90.8041H53.1674L54.7073 134.224H90.3273L88.8074 90.8041Z" fill="white"/>
<path d="M72.2874 126.864C70.3474 126.624 69.8374 128.384 70.1674 129.584C70.2652 129.857 70.4291 130.101 70.6445 130.295C70.8599 130.488 71.1201 130.626 71.4016 130.694C71.6831 130.762 71.9771 130.76 72.2574 130.687C72.5377 130.613 72.7954 130.472 73.0074 130.274C74.1674 129.304 73.6674 127.044 72.2874 126.864Z" stroke="#808080" stroke-width="0.24" stroke-linejoin="round"/>
<path d="M57.3273 128.784C59.3683 128.977 61.4246 128.941 63.4573 128.674" stroke="#C1C2CC" stroke-width="0.24" stroke-linejoin="round"/>
<path d="M80.5574 127.554C81.2574 128.124 81.9274 128.724 82.6074 129.324L83.6074 130.324C84.0212 129.777 84.386 129.195 84.6974 128.584C85.5774 127.324 86.5474 126.144 87.4874 124.924" stroke="#2FCC1A" stroke-width="0.24" stroke-linejoin="round"/>
<path d="M145.719 68.256L143.412 71.1485L148.564 75.2581L150.871 72.3656L145.719 68.256Z" fill="black"/>
<path d="M144.276 64.8448L141.982 67.7308L147.122 71.8166L149.416 68.9306L144.276 64.8448Z" fill="#F56C2C"/>
<path fill-rule="evenodd" clip-rule="evenodd" d="M150.387 74.2742L143.947 69.1342L114.097 106.564L111.947 116.264L120.537 111.694L150.387 74.2742Z" fill="#FFBA16"/>
<path fill-rule="evenodd" clip-rule="evenodd" d="M111.937 116.264L112.477 113.864L114.117 115.124L111.937 116.264Z" fill="black"/>
<path fill-rule="evenodd" clip-rule="evenodd" d="M115.687 107.024C115.687 107.084 115.687 107.214 115.687 107.284C115.687 107.354 115.687 108.164 115.687 108.494C115.678 108.55 115.678 108.608 115.687 108.664C115.703 108.692 115.728 108.713 115.757 108.724C115.904 108.771 116.061 108.771 116.207 108.724C116.546 108.635 116.88 108.528 117.207 108.404C117.323 108.36 117.451 108.36 117.567 108.404C117.647 108.404 117.657 108.584 117.667 108.734C117.667 109.104 117.567 109.604 117.597 109.844C117.596 109.893 117.607 109.942 117.63 109.986C117.653 110.03 117.686 110.067 117.727 110.094C117.855 110.13 117.99 110.13 118.117 110.094C118.407 110.094 118.757 109.934 119.037 109.884C119.138 109.848 119.247 109.848 119.347 109.884C119.431 109.963 119.495 110.06 119.537 110.167C119.578 110.275 119.595 110.39 119.587 110.504C119.573 110.798 119.625 111.092 119.737 111.364C119.813 111.473 119.927 111.548 120.057 111.574H120.207V111.344H120.117C120.089 111.338 120.061 111.326 120.037 111.308C120.013 111.291 119.993 111.269 119.977 111.244C119.886 111.019 119.841 110.777 119.847 110.534C119.851 110.379 119.819 110.225 119.753 110.084C119.687 109.944 119.589 109.82 119.467 109.724C119.334 109.681 119.191 109.681 119.057 109.724C118.827 109.724 118.537 109.874 118.267 109.934C118.124 109.979 117.971 109.979 117.827 109.934C117.821 109.894 117.821 109.854 117.827 109.814C117.871 109.436 117.895 109.055 117.897 108.674C117.893 108.598 117.872 108.523 117.836 108.456C117.8 108.388 117.749 108.33 117.687 108.284C117.542 108.232 117.383 108.232 117.237 108.284C116.977 108.344 116.657 108.484 116.357 108.564C116.204 108.612 116.04 108.612 115.887 108.564C115.887 108.234 115.887 107.384 115.887 107.344C115.898 107.221 115.898 107.097 115.887 106.974C115.873 106.939 115.848 106.91 115.815 106.89C115.783 106.87 115.745 106.861 115.707 106.864C115.415 106.88 115.124 106.92 114.837 106.984C114.685 106.998 114.534 107.028 114.387 107.074C114.347 107.091 114.31 107.115 114.277 107.144V107.314H114.387H114.437C114.848 107.195 115.266 107.098 115.687 107.024ZM115.937 108.524C115.937 108.524 115.957 108.534 115.937 108.524V108.524Z" fill="black"/>
<path fill-rule="evenodd" clip-rule="evenodd" d="M117.027 106.644C118.427 104.724 119.867 102.834 121.327 100.954C124.737 96.5842 128.327 92.2842 131.687 87.9542C134.297 84.6242 136.837 81.1742 139.507 77.8342C141.107 75.8342 142.747 73.8342 144.507 72.0142C144.667 71.8442 144.827 71.6842 144.977 71.5142L145.077 71.3842L144.947 71.2441L144.817 71.3641C144.657 71.5241 144.497 71.6941 144.347 71.8641C142.607 73.7341 140.967 75.6942 139.347 77.6942C136.677 81.0342 134.137 84.4842 131.537 87.8242C128.137 92.1842 124.537 96.4742 121.187 100.824C119.727 102.704 118.301 104.611 116.907 106.544L117.027 106.644Z" fill="black"/>
<path fill-rule="evenodd" clip-rule="evenodd" d="M120.167 110.694C120.61 110.221 121.02 109.72 121.397 109.194C122.287 107.994 123.067 106.674 123.957 105.504C124.847 104.334 125.687 103.214 126.557 102.084C127.877 100.384 129.207 98.7042 130.557 97.0242C134.807 91.6742 139.277 86.5342 143.557 81.2242C145.387 78.9542 147.187 76.6442 148.917 74.2842L148.727 74.1442C146.987 76.4942 145.177 78.7841 143.347 81.0541C139.067 86.3641 134.617 91.5241 130.347 96.8641C129.007 98.5541 127.677 100.234 126.347 101.934C125.474 103.074 124.607 104.217 123.747 105.364C122.867 106.544 122.087 107.864 121.217 109.084C120.845 109.603 120.444 110.1 120.017 110.574L120.167 110.694Z" fill="black"/>
<path fill-rule="evenodd" clip-rule="evenodd" d="M138.937 86.4042C138.937 86.4042 138.937 86.5041 138.937 86.5541C138.948 86.6287 138.965 86.7023 138.987 86.7742C138.987 86.9742 139.077 87.1741 139.127 87.3741C139.148 87.4593 139.175 87.5428 139.207 87.6241H139.377C139.377 87.5441 139.377 87.4541 139.377 87.3641C139.377 87.2741 139.287 86.9642 139.237 86.7642C139.242 86.6909 139.242 86.6174 139.237 86.5442L139.177 86.4042H138.937Z" fill="black"/>
<path fill-rule="evenodd" clip-rule="evenodd" d="M140.437 84.6442C140.432 84.7107 140.432 84.7776 140.437 84.8442C140.437 85.0042 140.437 85.1641 140.497 85.3141C140.557 85.4641 140.567 85.7741 140.607 85.9941H140.787C140.792 85.9309 140.792 85.8674 140.787 85.8041C140.787 85.5541 140.717 85.3041 140.677 85.0541C140.637 84.8041 140.677 84.7842 140.607 84.6442H140.437Z" fill="black"/>
<path fill-rule="evenodd" clip-rule="evenodd" d="M141.547 83.1542C141.543 83.1874 141.543 83.221 141.547 83.2542C141.576 83.5462 141.619 83.8365 141.677 84.1241C141.677 84.2441 141.677 84.3742 141.747 84.5042L141.807 84.7542H141.987C141.983 84.6575 141.983 84.5608 141.987 84.4642C141.927 84.0842 141.887 83.6941 141.807 83.3141C141.807 83.2641 141.807 83.2142 141.807 83.1642L141.547 83.1542Z" fill="black"/>
<path fill-rule="evenodd" clip-rule="evenodd" d="M142.667 82.0442C142.673 82.0974 142.673 82.151 142.667 82.2042C142.667 82.4242 142.767 82.6442 142.817 82.8542C142.837 82.9658 142.864 83.076 142.897 83.1841L142.987 83.4042L143.157 83.3442C143.162 83.2743 143.162 83.2041 143.157 83.1342C143.097 82.8442 143.037 82.5542 142.967 82.2642V82.1542C142.967 82.0942 142.967 82.0441 142.897 81.9941L142.667 82.0442Z" fill="black"/>
<path fill-rule="evenodd" clip-rule="evenodd" d="M143.647 80.9542C143.647 81.0642 143.647 81.1742 143.707 81.2842C143.767 81.3942 143.797 81.6341 143.847 81.8041C143.897 81.9741 143.897 81.9542 143.917 82.0342H144.097V81.8342C144.097 81.6742 144.027 81.5241 143.987 81.3741L143.927 81.1642C143.905 81.091 143.875 81.0205 143.837 80.9542H143.647Z" fill="black"/>
<path fill-rule="evenodd" clip-rule="evenodd" d="M144.517 80.1542C144.517 80.1542 144.517 80.2141 144.517 80.2441C144.517 80.4441 144.637 80.6442 144.697 80.8342C144.757 81.0242 144.767 81.0042 144.797 81.0942L144.977 81.0342C144.977 80.9542 144.977 80.8642 144.977 80.7742C144.977 80.6842 144.877 80.3741 144.817 80.1741C144.821 80.1443 144.821 80.114 144.817 80.0842L144.517 80.1542Z" fill="black"/>
<path fill-rule="evenodd" clip-rule="evenodd" d="M145.467 78.8942C145.462 78.9172 145.462 78.9411 145.467 78.9642C145.463 79.0107 145.463 79.0576 145.467 79.1042C145.514 79.2975 145.574 79.4875 145.647 79.6741C145.647 79.7441 145.707 79.8242 145.737 79.9042L145.917 79.8542L145.857 79.6042C145.817 79.4175 145.767 79.2275 145.707 79.0342C145.707 79.0342 145.707 78.9342 145.707 78.8942V78.8442L145.467 78.8942Z" fill="black"/>
<path fill-rule="evenodd" clip-rule="evenodd" d="M146.237 77.6642C146.233 77.694 146.233 77.7243 146.237 77.7542C146.233 77.8141 146.233 77.8742 146.237 77.9341C146.237 78.2141 146.337 78.4942 146.407 78.7642L146.467 78.9642H146.647V78.7542C146.647 78.4742 146.557 78.1941 146.497 77.9241C146.486 77.8627 146.47 77.8024 146.447 77.7441V77.6642H146.237Z" fill="black"/>
<path fill-rule="evenodd" clip-rule="evenodd" d="M147.007 76.8542C147.007 76.9442 147.007 77.0442 147.007 77.1342V77.3141C147.033 77.4994 147.07 77.6831 147.117 77.8641C147.122 77.9107 147.122 77.9576 147.117 78.0042H147.297C147.302 77.9476 147.302 77.8907 147.297 77.8342C147.297 77.6242 147.237 77.4142 147.187 77.2042C147.16 77.0892 147.127 76.9756 147.087 76.8641L147.007 76.8542Z" fill="black"/>
<path fill-rule="evenodd" clip-rule="evenodd" d="M147.687 75.6342C147.682 75.6504 147.682 75.6679 147.687 75.6841V75.7542C147.687 75.9142 147.687 76.0742 147.757 76.2342C147.827 76.3942 147.817 76.6442 147.857 76.8542C147.897 77.0642 147.907 77.0341 147.927 77.1241H148.127V76.8542C148.127 76.4942 148.037 76.1442 147.957 75.7942C147.963 75.7577 147.963 75.7206 147.957 75.6841L147.687 75.6342Z" fill="black"/>
<path fill-rule="evenodd" clip-rule="evenodd" d="M148.597 74.6841C148.592 74.7641 148.592 74.8442 148.597 74.9241C148.597 75.0341 148.597 75.1442 148.647 75.2642C148.697 75.3842 148.717 75.7242 148.777 75.9542V76.1241H148.997C148.993 76.0476 148.993 75.9708 148.997 75.8942C148.947 75.5942 148.897 75.2941 148.837 74.9941C148.837 74.8941 148.837 74.8042 148.767 74.7142L148.597 74.6841Z" fill="black"/>
<path fill-rule="evenodd" clip-rule="evenodd" d="M153.167 69.4442C153.107 69.5445 153.037 69.6383 152.957 69.7242C152.787 69.9242 152.577 70.1141 152.457 70.2441L151.007 71.9542C151.007 71.9542 150.957 71.9542 150.947 72.0242L150.867 72.1542L150.997 72.2742L151.117 72.1841L151.177 72.1042C151.677 71.5542 152.177 70.9942 152.657 70.4442C152.797 70.2842 153.057 70.0441 153.237 69.8141C153.325 69.7127 153.396 69.598 153.447 69.4742C153.446 69.4411 153.436 69.4089 153.419 69.3809C153.401 69.3528 153.377 69.3298 153.347 69.3141L152.957 69.0942L152.437 68.7642C152.323 68.6908 152.213 68.6106 152.107 68.5242C151.557 68.1142 151.047 67.6142 150.517 67.1642C150.277 66.9742 150.037 66.7841 149.787 66.6141L149.647 66.8242C149.898 66.9862 150.138 67.1632 150.367 67.3542C150.897 67.8042 151.367 68.2942 151.967 68.7142C152.077 68.8042 152.197 68.8742 152.317 68.9542L152.837 69.2942L153.167 69.4442Z" fill="black"/>
<path fill-rule="evenodd" clip-rule="evenodd" d="M64.9673 138.744C65.1977 138.448 65.3045 138.075 65.2654 137.702C65.2262 137.329 65.0442 136.986 64.7574 136.744L23.7574 103.474C23.4615 103.244 23.0879 103.137 22.715 103.176C22.3421 103.215 21.9989 103.397 21.7574 103.684L0.587339 129.744C0.356959 130.04 0.250149 130.414 0.289305 130.787C0.32846 131.159 0.510558 131.503 0.797361 131.744L41.7974 165.014C42.0922 165.247 42.4664 165.355 42.8401 165.316C43.2137 165.277 43.5573 165.093 43.7974 164.804L64.9673 138.744Z" fill="#F56C2C"/>
<path fill-rule="evenodd" clip-rule="evenodd" d="M92.6274 61.5041C92.6274 61.8241 92.5174 62.6341 92.5074 62.7641C92.5074 63.0641 92.5074 63.3642 92.5074 63.6642C92.5074 64.8642 92.6973 66.0541 92.6473 67.2441C92.5873 68.6041 92.6473 69.9641 92.6473 71.3341C92.7573 73.3341 92.9574 75.4041 93.0974 77.4241C93.2374 79.4441 93.0974 81.2141 93.1674 83.0941C93.1674 83.5641 93.1674 84.0941 93.2474 84.5141H93.5574C93.5574 84.0441 93.4874 83.5742 93.4774 83.1042C93.4174 81.2142 93.5373 79.3041 93.4073 77.4241C93.2773 75.5441 93.0773 73.3641 92.9673 71.3341C92.8973 69.9841 92.8773 68.6241 92.9673 67.3341C92.9673 67.0341 92.9673 66.7241 92.9673 66.4241C92.9673 65.2241 92.7773 64.0341 92.8273 62.8441C92.8273 62.7241 92.9174 62.0941 92.9274 61.7141C92.9505 61.6121 92.9505 61.5062 92.9274 61.4041C92.9274 61.3441 92.9274 61.3141 92.8474 61.3041C92.5328 61.167 92.1895 61.1086 91.8474 61.1341C91.0974 61.1341 90.1574 61.3141 89.7274 61.3141C88.8974 61.3141 88.0573 61.3141 87.2173 61.3841C85.2673 61.4741 83.3174 61.6141 81.3674 61.6941C76.8774 61.8741 72.3674 62.2941 67.8574 62.5141C65.9174 62.6141 63.9874 62.6742 62.0674 62.6642C58.8974 62.6642 55.6973 62.3142 52.5273 62.4142C51.2935 62.4444 50.0636 62.5647 48.8474 62.7741H48.6074L48.4573 62.8641V63.0442C48.5139 63.049 48.5708 63.049 48.6274 63.0442C48.7556 63.0305 48.8827 63.0071 49.0074 62.9742C50.6157 62.7309 52.2409 62.6172 53.8674 62.6341C56.5874 62.6341 59.3173 62.8942 62.0273 62.9142C63.9573 62.9142 65.8973 62.9141 67.8373 62.7641C72.3473 62.5341 76.8374 62.1141 81.3474 61.9441C83.2974 61.8641 85.2474 61.7241 87.1974 61.6441C88.0374 61.6441 88.8673 61.5741 89.7073 61.5641C90.1273 61.5641 91.0774 61.4041 91.8174 61.3841C92.0929 61.3651 92.3692 61.406 92.6274 61.5041ZM92.6274 61.5041C92.6274 61.5041 92.6074 61.4941 92.6274 61.5041V61.5041Z" fill="black"/>
<path d="M50.2173 48.0042C63.8473 49.2242 77.5773 46.4542 91.2173 46.3542" stroke="black" stroke-linejoin="round"/>
<path d="M81.4374 74.5442C79.9174 74.5442 77.3274 74.4242 75.9874 75.0942C75.2974 75.4542 74.5773 76.7741 75.4073 77.3641C76.8973 78.4241 79.6474 76.6342 81.3074 77.2842C81.5633 77.371 81.7835 77.5398 81.9339 77.7644C82.0843 77.989 82.1566 78.2568 82.1395 78.5265C82.1225 78.7963 82.017 79.0529 81.8395 79.2568C81.6619 79.4606 81.4222 79.6002 81.1573 79.6542C79.1573 80.2142 76.8574 79.7442 74.8174 79.9142" stroke="#6169D0" stroke-width="0.1" stroke-linejoin="round"/>
<path d="M77.1074 72.1241C77.1074 75.6541 77.1074 79.1742 77.3074 82.6942" stroke="#6169D0" stroke-width="0.1" stroke-linejoin="round"/>
<path d="M79.3674 71.6942C79.2742 75.3898 79.4212 79.0876 79.8074 82.7642" stroke="#6169D0" stroke-width="0.1" stroke-linejoin="round"/>
<path fill-rule="evenodd" clip-rule="evenodd" d="M63.8674 91.5042C63.8074 91.5042 63.8174 91.5042 63.7774 91.5042C63.7374 91.5042 63.7774 91.6242 63.7774 91.6842C63.7774 92.3342 63.7774 92.9842 63.7774 93.6842C63.7774 100.178 63.864 106.678 64.0374 113.184C64.2574 120.418 64.6307 127.634 65.1574 134.834H65.7474C65.2174 127.654 64.8674 120.434 64.6474 113.214C64.4474 106.724 64.3473 100.214 64.3273 93.7342C64.3273 93.0842 64.3273 92.4342 64.3273 91.7342C64.3273 91.6742 64.3273 91.6042 64.3273 91.5542C64.3273 91.5042 64.3274 91.5542 64.2374 91.5542L63.8674 91.5042Z" fill="black"/>
<path fill-rule="evenodd" clip-rule="evenodd" d="M77.3774 90.8641C77.3774 91.3441 77.2873 91.8642 77.2673 92.2942C77.2673 93.0042 77.2673 93.7242 77.2673 94.4442C77.3273 99.1942 77.8274 103.954 77.7274 108.704C77.6074 114.844 77.1174 121.164 77.1774 127.404C77.1774 129.554 77.2673 131.704 77.4573 133.824C77.4573 134.144 77.5174 134.474 77.5674 134.824C77.6034 135.036 77.6501 135.247 77.7073 135.454L78.1473 135.404C78.1573 135.228 78.1573 135.051 78.1473 134.874C78.1576 134.698 78.1576 134.521 78.1473 134.344C77.8873 131.184 77.7774 127.984 77.8174 124.774C77.8774 119.414 78.2373 114.014 78.3373 108.774C78.3373 107.574 78.3373 106.384 78.3373 105.184C78.1973 100.904 77.8773 96.6242 77.8273 92.3542C77.8273 91.8742 77.8273 91.3541 77.8273 90.9241L77.3774 90.8641Z" fill="black"/>
<path fill-rule="evenodd" clip-rule="evenodd" d="M53.4874 104.404C53.5503 104.439 53.6176 104.466 53.6874 104.484C53.8335 104.47 53.9777 104.44 54.1174 104.394C55.9274 104.074 57.7574 103.884 59.5974 103.744C62.6874 103.514 65.7874 103.434 68.8574 103.164C72.7474 102.814 76.7074 102.314 80.6674 102.014C83.0374 101.844 85.4074 101.784 87.7574 101.774H88.5474V101.204H87.7474C85.3648 101.15 82.9809 101.23 80.6074 101.444C76.6074 101.744 72.6773 102.244 68.7773 102.594C65.2073 102.924 61.5774 102.974 57.9874 103.324C56.5974 103.464 55.2073 103.654 53.8373 103.914C53.7457 103.92 53.6551 103.937 53.5674 103.964C53.4874 103.964 53.4673 104.054 53.3973 104.114L53.4874 104.404Z" fill="black"/>
<path fill-rule="evenodd" clip-rule="evenodd" d="M54.2673 113.894C54.321 113.927 54.378 113.954 54.4374 113.974H54.5474H55.6373C57.4373 113.864 59.2273 113.624 61.0273 113.534C66.0273 113.284 71.1374 113.204 76.1974 113.004C78.3774 112.914 80.5473 112.804 82.7073 112.644C84.1373 112.544 85.5473 112.304 86.9673 112.164C87.5673 112.094 88.1773 112.054 88.7773 112.034V111.424C88.1573 111.424 87.5474 111.494 86.9274 111.554C85.5174 111.704 84.1074 111.934 82.6874 112.044C80.5274 112.204 78.3674 112.314 76.1974 112.414C71.1374 112.624 66.0673 112.714 61.0173 112.974C59.0173 113.084 57.0174 113.394 54.9474 113.484C54.7947 113.464 54.6401 113.464 54.4874 113.484C54.4151 113.5 54.3469 113.53 54.2874 113.574L54.2673 113.894Z" fill="black"/>
<path fill-rule="evenodd" clip-rule="evenodd" d="M54.6174 124.644C54.6854 124.691 54.7594 124.728 54.8373 124.754C54.9103 124.764 54.9844 124.764 55.0574 124.754C56.3574 124.754 57.6674 124.754 58.9874 124.674C62.3674 124.464 65.7673 123.934 69.0773 123.594C72.3873 123.254 75.7473 122.974 79.0773 122.784C82.4073 122.594 85.7973 122.464 89.1373 122.404V121.844C85.7973 121.894 82.4274 122.004 79.0574 122.204C75.6874 122.404 72.3274 122.654 68.9974 123.004C66.1674 123.294 63.2674 123.704 60.3674 124.004C58.6374 124.154 56.9074 124.254 55.1874 124.234C55.0743 124.224 54.9605 124.224 54.8474 124.234C54.7656 124.263 54.6855 124.297 54.6074 124.334L54.6174 124.644Z" fill="black"/>
<path fill-rule="evenodd" clip-rule="evenodd" d="M90.2874 134.214H84.0273C79.0273 134.274 74.0273 133.944 68.9673 134.004C67.4473 134.004 65.9674 134.004 64.4374 134.174C63.7874 134.234 63.1474 134.324 62.5074 134.414V134.764C63.1574 134.764 63.7974 134.764 64.4374 134.704C65.9374 134.704 67.4374 134.584 68.9374 134.584C73.9374 134.584 79.0274 134.904 83.9974 134.874H89.0674C89.1674 134.874 90.0674 134.874 90.4174 134.874C90.5164 134.875 90.6135 134.847 90.697 134.794C90.7804 134.741 90.8466 134.664 90.8873 134.574C90.9634 133.974 90.9936 133.369 90.9774 132.764C90.9774 131.384 90.7974 129.924 90.7574 128.654C90.6674 126.424 90.5874 124.214 90.4974 121.994C90.4274 120.514 90.3573 118.994 90.2773 117.554C90.064 113.981 89.9007 110.408 89.7874 106.834C89.5974 101.464 89.4774 96.0942 89.3174 90.7242H88.7874C88.9674 96.9842 89.1073 103.254 89.3273 109.514C89.414 112.181 89.524 114.847 89.6573 117.514C89.7373 119.004 89.7974 120.514 89.8574 121.954C89.9374 124.161 90.0107 126.378 90.0773 128.604C90.0773 129.874 90.2874 131.324 90.3074 132.704C90.3374 133.274 90.3274 133.754 90.2874 134.214Z" fill="black"/>
<path d="M1.69739 132.254C12.1674 140.354 22.1173 149.154 32.5873 157.254C35.1373 159.254 37.3774 161.584 39.8774 163.634C40.7174 164.314 41.8774 165.574 43.0474 165.304C43.9535 164.996 44.7451 164.421 45.3174 163.654C46.8261 161.827 48.2412 159.925 49.5574 157.954C54.6274 151.334 59.9873 144.954 65.1573 138.444" stroke="black" stroke-linejoin="round"/>
<path d="M90.6573 34.4642C91.1773 33.2542 91.4473 31.9642 91.8973 30.7242C94.2973 24.0742 96.1873 17.2342 99.3973 10.9042C101.127 7.48418 103.787 3.42417 107.397 1.70417C111.397 -0.235829 114.327 4.87416 115.717 7.75416C117.247 10.9542 117.487 14.1842 117.937 17.6542C118.812 23.4885 119.013 29.4039 118.537 35.2842" stroke="black" stroke-linejoin="round"/>
<path d="M124.997 56.6542C125.984 57.6939 127.103 58.5985 128.327 59.3442C129.169 59.8133 130.086 60.1315 131.037 60.2842C131.728 60.326 132.421 60.3026 133.107 60.2142C138.387 59.7442 139.337 52.6942 140.237 48.5942C140.597 46.9442 141.017 45.3042 141.417 43.6642C141.487 43.3542 142.007 42.1942 141.907 41.9442C141.907 41.9442 140.967 42.0342 140.907 42.0442C139.907 42.1542 138.837 42.2542 137.807 42.2742C133.207 42.3542 128.547 42.0842 123.987 42.6442" stroke="black" stroke-linejoin="round"/>
<path d="M109.717 60.0842C112.307 60.2742 114.877 59.9742 117.467 59.9442C121.227 59.9442 125.037 60.0641 128.787 60.3141" stroke="black" stroke-linejoin="round"/>
</svg>
