<svg width="142" height="161" viewBox="0 0 142 161" fill="none" xmlns="http://www.w3.org/2000/svg">
<path fill-rule="evenodd" clip-rule="evenodd" d="M17.0274 40.1623C9.81739 49.1623 0.347402 68.4024 0.857402 84.6924C1.0574 91.0924 3.0974 99.9824 9.3574 103.142C13.5774 105.272 17.3574 102.312 20.1374 99.2524C26.3474 92.4024 29.8774 83.9124 37.4174 78.1124C39.4174 76.5624 46.9974 70.5123 49.2674 74.2823C52.2074 79.2023 47.9974 87.8224 46.5874 92.4424C42.5874 105.632 38.5274 119.332 39.6974 133.302C40.4774 142.492 44.0774 151.682 51.7474 157.302C57.3574 161.422 65.5074 162.302 70.6374 156.862C74.1974 153.102 75.6374 148.092 77.2074 143.312C79.1074 137.526 80.9274 131.716 82.6674 125.882C87.2274 110.452 91.2874 91.4424 99.9574 77.7024C103.507 72.0724 108.867 69.6024 113.567 65.2424C120.317 58.9724 125.687 46.3024 123.757 37.0624C121.477 26.1624 109.997 25.4924 100.917 27.4224C97.0374 28.2424 91.4774 29.9624 87.7974 27.5924C82.1174 23.9424 83.7274 15.7123 84.1274 10.1023C84.2974 7.61235 85.1274 3.82234 83.0174 1.91234C77.7174 -2.81766 70.0174 2.43236 64.8974 4.74236C53.9974 9.66236 33.8674 19.0823 17.0274 40.1623Z" fill="#FFE8DC"/>
<path fill-rule="evenodd" clip-rule="evenodd" d="M75.7674 25.8023C75.7148 25.5312 75.609 25.2731 75.4561 25.0431C75.3032 24.813 75.1062 24.6156 74.8765 24.4622C74.6468 24.3088 74.389 24.2024 74.118 24.1492C73.8469 24.096 73.568 24.0971 73.2974 24.1524L18.4074 35.1524L15.1674 37.9823C14.6826 38.4302 14.3063 38.9827 14.0671 39.5979C13.828 40.213 13.7323 40.8746 13.7874 41.5323L33.7374 141.202C34.7374 145.552 37.3274 147.102 40.7374 146.432L95.6574 135.552C95.9279 135.499 96.1852 135.392 96.4146 135.239C96.6439 135.085 96.8409 134.889 96.9941 134.659C97.1473 134.43 97.2538 134.173 97.3076 133.902C97.3614 133.631 97.3613 133.353 97.3074 133.082L75.7674 25.8023Z" fill="black"/>
<path fill-rule="evenodd" clip-rule="evenodd" d="M74.9074 26.7724C74.8084 26.2869 74.5218 25.8601 74.1098 25.5849C73.6978 25.3096 73.1938 25.2081 72.7074 25.3024L20.4374 35.7624C19.9498 35.8613 19.5213 36.1494 19.2458 36.5637C18.9702 36.9779 18.8701 37.4845 18.9674 37.9724L39.6574 141.312C39.7587 141.799 40.0474 142.226 40.4609 142.501C40.8745 142.776 41.3798 142.877 41.8674 142.782L94.1674 132.362C94.6537 132.261 95.0805 131.972 95.3556 131.559C95.6307 131.145 95.7319 130.64 95.6374 130.152L74.9074 26.7724Z" fill="white"/>
<path fill-rule="evenodd" clip-rule="evenodd" d="M58.9974 28.5524C58.9592 28.3584 58.883 28.1739 58.7732 28.0095C58.6634 27.8451 58.5223 27.704 58.3578 27.5943C58.1933 27.4847 58.0087 27.4086 57.8147 27.3705C57.6207 27.3324 57.4211 27.333 57.2274 27.3724L38.2274 31.1824C38.0347 31.2206 37.8515 31.2965 37.6883 31.4057C37.5251 31.515 37.3851 31.6554 37.2764 31.819C37.1676 31.9826 37.0923 32.166 37.0547 32.3588C37.0171 32.5516 37.0181 32.7499 37.0574 32.9424L37.6474 35.9424C37.7247 36.332 37.9534 36.6751 38.2834 36.8963C38.6133 37.1175 39.0176 37.1988 39.4074 37.1224L58.4074 33.3124C58.7978 33.2327 59.141 33.002 59.362 32.6705C59.583 32.3389 59.6641 31.9334 59.5874 31.5423L58.9974 28.5524Z" fill="black"/>
<path fill-rule="evenodd" clip-rule="evenodd" d="M65.0074 117.312L103.707 56.5424L141.597 81.4024L102.497 141.172L65.0074 117.312Z" fill="#3BBCFF"/>
<path d="M128.813 79.6547L118.342 95.7722L121.663 97.9295L132.134 81.8121L128.813 79.6547Z" fill="#237BB5"/>
<path d="M89.7482 95.2043L79.3694 111.349L82.6958 113.488L93.0746 97.3427L89.7482 95.2043Z" fill="#237BB5"/>
<path d="M79.3479 108.194L75.1277 114.73L78.4545 116.878L82.6747 110.342L79.3479 108.194Z" fill="#237BB5"/>
<path fill-rule="evenodd" clip-rule="evenodd" d="M51.3174 118.522L66.6174 48.1124L110.767 58.3124L94.7674 127.912L51.3174 118.522Z" fill="#F56C2C"/>
<path d="M98.1453 61.0483L93.8937 79.7922L97.7556 80.6682L102.007 61.9243L98.1453 61.0483Z" fill="#B55723"/>
<path d="M66.8508 83.4858L62.8088 102.276L66.6802 103.109L70.7222 84.3185L66.8508 83.4858Z" fill="#B55723"/>
<path d="M61.6372 105.063L59.9361 112.655L63.8003 113.521L65.5014 105.929L61.6372 105.063Z" fill="#B55723"/>
<path fill-rule="evenodd" clip-rule="evenodd" d="M6.4874 93.7424C6.56856 93.8356 6.66288 93.9164 6.7674 93.9824C6.8704 94.0241 6.97773 94.0544 7.0874 94.0724C8.8774 94.5724 10.8774 95.0724 12.7174 95.8224C13.5857 96.1444 14.4281 96.5322 15.2374 96.9824L15.5974 96.3524C14.1954 95.5846 12.7175 94.9646 11.1874 94.5024C9.79738 94.0724 8.38739 93.6524 7.07739 93.3724C7.01449 93.362 6.95029 93.362 6.88739 93.3724C6.76739 93.3724 6.69739 93.4224 6.57739 93.4424L6.4874 93.7424Z" fill="#F56C2C"/>
<path fill-rule="evenodd" clip-rule="evenodd" d="M10.4474 89.4524C10.4103 89.5664 10.3835 89.6835 10.3674 89.8024C10.3574 89.9155 10.3574 90.0293 10.3674 90.1424C10.3674 92.2024 10.3674 94.2924 10.4274 96.3824C10.4679 97.9316 10.5948 99.4773 10.8074 101.012L11.4774 100.912C11.3074 99.7824 11.1974 98.6524 11.1174 97.5024C10.9674 95.0924 10.9874 92.6524 10.9274 90.2524C10.9374 90.0892 10.9374 89.9256 10.9274 89.7624C10.9274 89.6524 10.8674 89.5524 10.8374 89.4424L10.4474 89.4524Z" fill="#F56C2C"/>
<path fill-rule="evenodd" clip-rule="evenodd" d="M7.57739 90.4824C7.57739 90.5324 7.57739 90.4824 7.57739 90.5524C7.55754 90.6073 7.55754 90.6674 7.57739 90.7224C7.59365 90.7578 7.61377 90.7914 7.63739 90.8224C8.06739 91.6024 8.51738 92.3624 8.96738 93.1124C10.1374 95.1124 11.3574 97.0124 12.6574 98.9124L13.3274 98.4524C11.6374 96.0324 10.1074 93.5824 8.5874 91.0624C8.48799 90.8205 8.35316 90.5947 8.18738 90.3924C8.14023 90.3471 8.08136 90.3159 8.0174 90.3024H7.93738L7.57739 90.4824Z" fill="#F56C2C"/>
<path fill-rule="evenodd" clip-rule="evenodd" d="M7.9274 98.0124C8.00503 98.0005 8.08183 97.9838 8.15738 97.9624C8.20035 97.9571 8.23971 97.9357 8.2674 97.9024C8.41289 97.7473 8.54037 97.5762 8.6474 97.3924C10.1083 95.3932 11.7304 93.5169 13.4974 91.7823C13.5984 91.6898 13.692 91.5895 13.7774 91.4824C13.8587 91.3605 13.9322 91.2336 13.9974 91.1024L13.6774 90.7524C13.5531 90.7954 13.4326 90.8489 13.3174 90.9124C13.1592 91.0176 13.0119 91.1382 12.8774 91.2724C11.9534 92.1083 11.0849 93.0035 10.2774 93.9524C9.3295 94.996 8.46991 96.1165 7.7074 97.3024C7.6555 97.3594 7.61779 97.428 7.59738 97.5024C7.59738 97.6424 7.59738 97.6724 7.59738 97.8124L7.9274 98.0124Z" fill="#F56C2C"/>
<path fill-rule="evenodd" clip-rule="evenodd" d="M117.967 27.7823C117.846 27.8508 117.729 27.9277 117.617 28.0124C117.484 28.1508 117.363 28.3015 117.257 28.4624C115.517 30.7624 113.917 33.1624 112.257 35.5124L112.867 35.9524C114.537 33.5924 116.227 31.2624 117.867 28.8724C117.988 28.7241 118.092 28.5632 118.177 28.3924C118.226 28.2633 118.259 28.1291 118.277 27.9924L117.967 27.7823Z" fill="#F56C2C"/>
<path fill-rule="evenodd" clip-rule="evenodd" d="M111.307 30.4524C111.307 30.6024 111.247 30.6124 111.307 30.7524C111.367 30.8924 111.677 31.1123 111.867 31.2923C113.807 33.1223 115.657 34.9423 117.537 36.8023C117.685 36.985 117.856 37.1464 118.047 37.2823C118.109 37.3159 118.177 37.3364 118.247 37.3424L118.617 36.9923C118.633 36.9232 118.633 36.8515 118.617 36.7823C118.548 36.663 118.46 36.5551 118.357 36.4624C117.177 35.1224 115.897 33.9224 114.617 32.7024C113.777 31.8924 112.937 31.0623 112.027 30.2923C111.977 30.2423 111.937 30.1823 111.877 30.1623C111.817 30.1423 111.727 30.1623 111.587 30.1623L111.307 30.4524Z" fill="#F56C2C"/>
<path fill-rule="evenodd" clip-rule="evenodd" d="M114.587 29.4624C114.587 29.4624 114.587 29.4624 114.537 29.5124C114.507 29.6406 114.507 29.7742 114.537 29.9024C114.457 31.2324 114.407 32.5824 114.367 33.9024C114.367 34.8024 114.367 35.7024 114.367 36.5924C114.362 36.6423 114.362 36.6925 114.367 36.7424C114.383 36.794 114.403 36.8442 114.427 36.8924H115.107C115.128 36.8509 115.145 36.8073 115.157 36.7624C115.177 36.5863 115.177 36.4085 115.157 36.2324C115.087 34.2324 115.157 32.2324 115.237 30.2324C115.237 30.0024 115.237 29.7824 115.237 29.5624C115.237 29.5624 115.237 29.5624 115.187 29.5624L114.587 29.4624Z" fill="#F56C2C"/>
<path fill-rule="evenodd" clip-rule="evenodd" d="M110.927 33.7424C111.067 33.8324 111.087 33.9124 111.237 33.9624C111.307 33.9724 111.378 33.9724 111.447 33.9624C112.917 33.9624 114.447 33.9624 115.987 33.9624C116.789 33.9787 117.591 33.9083 118.377 33.7524C118.477 33.7524 118.567 33.6724 118.667 33.6324L119.357 33.4124L119.297 33.0524C118.937 33.0524 118.597 33.0524 118.227 33.0524H117.787C117.397 33.0524 116.997 33.0524 116.597 33.0524C114.987 33.1124 113.337 33.0524 111.757 33.1024C111.592 33.0721 111.423 33.0721 111.257 33.1024C111.097 33.1024 111.057 33.2424 110.917 33.3424L110.927 33.7424Z" fill="#F56C2C"/>
<path fill-rule="evenodd" clip-rule="evenodd" d="M73.8774 135.912C73.8774 135.812 73.9674 135.722 74.0074 135.612C74.1865 135.194 74.3902 134.787 74.6174 134.392C75.7706 132.404 77.4348 130.761 79.4374 129.632C81.1174 128.822 82.8074 128.972 83.8474 131.222C84.3574 132.352 84.1974 134.492 84.0174 136.832C83.7674 140.002 83.4674 143.542 84.4474 145.622C85.2774 147.392 86.9774 148.242 90.2874 147.042C90.6879 146.894 91.0787 146.72 91.4574 146.522C92.0174 146.232 92.5574 145.922 93.0974 145.602L92.8374 145.152C92.2974 145.442 91.7574 145.732 91.1974 145.992C90.8319 146.161 90.4581 146.311 90.0774 146.442C87.2374 147.442 85.7674 146.842 85.0774 145.342C84.1374 143.342 84.4474 139.932 84.6674 136.882C84.8374 134.412 84.9374 132.162 84.3874 130.972C83.1674 128.312 81.1674 128.192 79.1674 129.162C77.0816 130.349 75.3544 132.077 74.1674 134.162C73.9186 134.573 73.7142 135.009 73.5574 135.462C73.5223 135.58 73.4955 135.701 73.4774 135.822L73.8774 135.912Z" fill="#A14DF6"/>
<path fill-rule="evenodd" clip-rule="evenodd" d="M20.1074 85.3124C20.1121 85.2458 20.1121 85.179 20.1074 85.1124C20.127 84.8461 20.127 84.5787 20.1074 84.3124C20.0074 81.6524 20.0474 78.1624 19.1874 75.3124C18.9412 74.1721 18.4197 73.1094 17.6684 72.217C16.9172 71.3245 15.959 70.6295 14.8774 70.1924C13.2308 69.7771 11.5022 69.8186 9.87739 70.3124C8.33056 70.7678 6.71763 70.9571 5.1074 70.8724C4.44587 70.7843 3.81956 70.5222 3.29249 70.1128C2.76541 69.7034 2.35647 69.1615 2.1074 68.5424C1.29588 66.7456 1.10248 64.7307 1.55741 62.8124C2.14741 59.7124 3.72741 56.5424 4.55741 53.4124C4.93859 52.023 5.08723 50.5803 4.99738 49.1424H4.5174C4.57324 50.5278 4.40093 51.9129 4.00739 53.2424C3.16739 56.3724 1.58739 59.5624 1.00739 62.6724C0.524092 64.7159 0.735208 66.8622 1.6074 68.7724C1.89306 69.4784 2.35947 70.0968 2.95978 70.5654C3.5601 71.0341 4.27317 71.3365 5.02738 71.4424C6.71482 71.5321 8.40528 71.336 10.0274 70.8624C11.7074 70.5124 13.3574 70.1924 14.7474 70.7024C15.7481 71.1094 16.6351 71.7535 17.3319 72.5792C18.0286 73.4048 18.5144 74.3874 18.7474 75.4424C19.6074 78.2924 19.5674 81.7224 19.7474 84.3424C19.7435 84.6133 19.7602 84.8841 19.7974 85.1524C19.7974 85.2224 19.8574 85.2824 19.8774 85.3424L20.1074 85.3124Z" fill="#A14DF6"/>
<path fill-rule="evenodd" clip-rule="evenodd" d="M99.3374 45.3124C99.3874 45.1824 99.4474 45.0624 99.4974 44.9424C99.6381 44.5084 99.883 44.1156 100.211 43.7983C100.539 43.481 100.939 43.2489 101.377 43.1224C101.914 43.0776 102.453 43.1581 102.953 43.3577C103.453 43.5573 103.899 43.8705 104.257 44.2724C106.037 46.0324 107.187 48.6124 108.897 49.8724C110.117 50.7624 111.617 51.0224 113.737 49.8724L113.517 49.4524C111.627 50.3824 110.327 50.1324 109.257 49.3424C107.587 48.0924 106.417 45.5723 104.637 43.8523C104.215 43.3966 103.693 43.0455 103.111 42.8268C102.53 42.6081 101.905 42.5278 101.287 42.5924C100.786 42.6793 100.318 42.9025 99.9356 43.2377C99.5528 43.5728 99.2697 44.0069 99.1174 44.4924C99.0803 44.5858 99.0534 44.683 99.0374 44.7823C99.0219 44.9253 99.0219 45.0695 99.0374 45.2124L99.3374 45.3124Z" fill="#A14DF6"/>
<path fill-rule="evenodd" clip-rule="evenodd" d="M93.6374 43.4624C93.6374 43.3424 93.7174 43.2524 93.7374 43.1324C93.7526 42.8826 93.7526 42.6322 93.7374 42.3824C93.6483 39.1287 94.7831 35.9599 96.9174 33.5024C98.349 31.883 100.085 30.5612 102.027 29.6124C103.32 28.9608 104.677 28.448 106.077 28.0824L105.957 27.6124C104.501 27.9238 103.086 28.4002 101.737 29.0323C99.7059 29.9871 97.8918 31.3485 96.4074 33.0323C94.141 35.5984 92.9549 38.9417 93.0974 42.3624C93.0875 42.6271 93.1076 42.8922 93.1574 43.1524C93.2027 43.2629 93.2561 43.3698 93.3174 43.4724L93.6374 43.4624Z" fill="#279FF2"/>
<path fill-rule="evenodd" clip-rule="evenodd" d="M86.7974 141.212C86.7974 141.332 86.8874 141.432 86.9274 141.542C87.0242 142.002 87.2659 142.418 87.617 142.729C87.968 143.041 88.4099 143.231 88.8774 143.272C90.1874 143.612 91.7574 143.062 93.3774 142.462C95.3774 141.712 97.5274 140.882 99.4974 142.162L99.7174 141.842C97.7174 140.362 95.3274 141.032 93.1374 141.762C91.6474 142.262 90.2574 142.762 89.0674 142.512C88.5424 142.328 88.0739 142.011 87.7074 141.592C87.5874 141.482 87.4474 141.422 87.3174 141.292L87.1074 141.052L86.7974 141.212Z" fill="#279FF2"/>
<path fill-rule="evenodd" clip-rule="evenodd" d="M18.3674 67.0124C18.3674 66.8324 18.4274 66.6524 18.4574 66.4724L18.0774 66.4024C16.8207 66.1895 15.5833 65.8751 14.3774 65.4624C13.7974 65.2524 13.1974 65.0424 12.6174 64.7724C12.2433 64.6105 11.8822 64.4199 11.5374 64.2024C9.66739 63.0024 9.19739 61.6124 9.53739 60.1324C9.86739 58.4324 11.1374 56.6224 12.3774 54.8324C13.6174 53.0424 15.0574 50.9924 15.3174 49.2924C15.5203 47.945 15.3758 46.5682 14.8974 45.2924C14.1356 43.4889 13.2293 41.7499 12.1874 40.0924L11.8574 40.2724C12.8401 41.9321 13.6958 43.6637 14.4174 45.4524C14.827 46.6439 14.9402 47.9172 14.7474 49.1624C14.4874 50.7824 13.1674 52.5824 11.8574 54.4224C10.5474 56.2624 9.2274 58.1724 8.8574 59.9524C8.4874 61.7324 8.99738 63.3424 11.1874 64.7624C11.5656 64.9966 11.9599 65.2038 12.3674 65.3824C12.9641 65.6461 13.5751 65.8765 14.1974 66.0724C15.1795 66.3917 16.1817 66.6456 17.1974 66.8324C17.5774 66.9024 17.9674 66.9724 18.3574 67.0224C18.3574 67.0224 18.4474 67.0224 18.4774 67.0224L18.3674 67.0124Z" fill="#279FF2"/>
</svg>
